<svg xmlns="http://www.w3.org/2000/svg" xmlns:xlink="http://www.w3.org/1999/xlink" width="1024" zoomAndPan="magnify" viewBox="0 0 768 767.999994" height="1024" preserveAspectRatio="xMidYMid meet" version="1.0"><defs><clipPath id="5a08c424f6"><path d="M 128 182.015625 L 640 182.015625 L 640 586 L 128 586 Z M 128 182.015625 " clip-rule="nonzero"/></clipPath></defs><g clip-path="url(#5a08c424f6)"><path fill="#faf9f7" d="M 548.539062 182.132812 C 500.617188 182.140625 374.121094 181.996094 324.542969 182.050781 C 323.042969 182.058594 321.546875 182.105469 320.050781 182.191406 C 318.554688 182.273438 317.0625 182.394531 315.574219 182.546875 C 314.082031 182.703125 312.597656 182.894531 311.117188 183.125 C 309.636719 183.351562 308.164062 183.617188 306.695312 183.914062 C 305.226562 184.214844 303.769531 184.550781 302.316406 184.921875 C 300.863281 185.292969 299.421875 185.699219 297.992188 186.140625 C 296.558594 186.582031 295.140625 187.054688 293.730469 187.566406 C 292.324219 188.074219 290.925781 188.621094 289.546875 189.199219 C 288.164062 189.777344 286.796875 190.386719 285.445312 191.03125 C 284.089844 191.675781 282.753906 192.351562 281.4375 193.0625 C 280.117188 193.773438 278.816406 194.511719 277.53125 195.285156 C 276.25 196.058594 274.984375 196.863281 273.742188 197.695312 C 272.496094 198.53125 271.273438 199.394531 270.070312 200.289062 C 268.871094 201.183594 267.6875 202.105469 266.53125 203.054688 C 265.375 204.007812 264.242188 204.984375 263.132812 205.992188 C 262.023438 207 260.9375 208.03125 259.878906 209.089844 C 258.820312 210.148438 257.785156 211.234375 256.777344 212.34375 C 255.773438 213.453125 254.792969 214.585938 253.839844 215.742188 C 252.890625 216.898438 251.96875 218.078125 251.074219 219.28125 C 250.179688 220.484375 249.316406 221.707031 248.480469 222.949219 C 247.644531 224.195312 246.839844 225.457031 246.066406 226.742188 C 245.296875 228.023438 244.554688 229.324219 243.84375 230.644531 C 243.132812 231.964844 242.457031 233.300781 241.8125 234.652344 C 241.167969 236.003906 240.554688 237.371094 239.976562 238.753906 C 239.398438 240.132812 238.855469 241.527344 238.34375 242.9375 C 237.832031 244.347656 237.359375 245.765625 236.917969 247.199219 C 236.476562 248.628906 236.070312 250.070312 235.699219 251.523438 C 235.324219 252.972656 234.992188 254.433594 234.691406 255.898438 C 234.390625 257.367188 234.125 258.84375 233.898438 260.324219 C 233.667969 261.804688 233.476562 263.289062 233.320312 264.777344 C 233.164062 266.269531 233.042969 267.761719 232.960938 269.257812 C 232.878906 270.753906 232.828125 272.25 232.820312 273.746094 C 232.816406 277.621094 233.054688 281.476562 233.542969 285.320312 C 234.03125 289.164062 234.757812 292.960938 235.726562 296.710938 C 236.699219 300.460938 237.902344 304.132812 239.339844 307.730469 C 240.777344 311.328125 242.4375 314.816406 244.320312 318.203125 C 246.199219 321.589844 248.289062 324.839844 250.585938 327.960938 C 252.882812 331.078125 255.367188 334.042969 258.039062 336.84375 C 260.710938 339.648438 263.550781 342.269531 266.558594 344.710938 C 269.566406 347.152344 272.714844 349.394531 276.007812 351.433594 L 276.007812 415.265625 L 191.613281 415.265625 C 190.613281 415.269531 189.617188 415.347656 188.628906 415.503906 C 187.644531 415.660156 186.671875 415.894531 185.722656 416.203125 C 184.769531 416.507812 183.847656 416.886719 182.957031 417.339844 C 182.0625 417.789062 181.210938 418.308594 180.398438 418.890625 C 179.585938 419.472656 178.824219 420.117188 178.109375 420.816406 C 177.398438 421.519531 176.742188 422.269531 176.148438 423.074219 C 175.550781 423.878906 175.019531 424.722656 174.554688 425.605469 C 174.09375 426.492188 173.699219 427.410156 173.375 428.355469 L 142.289062 428.355469 C 112.945312 430.449219 134.726562 481.136719 156.824219 499.699219 C 159.875 502.316406 163.097656 504.703125 166.484375 506.867188 C 169.871094 509.03125 173.394531 510.949219 177.050781 512.621094 C 180.707031 514.289062 184.460938 515.695312 188.316406 516.839844 C 192.167969 517.980469 196.082031 518.851562 200.058594 519.445312 C 204.332031 526.476562 209.039062 533.207031 214.175781 539.636719 L 169.574219 539.636719 C 168.957031 539.644531 168.347656 539.714844 167.742188 539.84375 C 167.140625 539.972656 166.554688 540.160156 165.988281 540.402344 C 165.421875 540.644531 164.882812 540.9375 164.375 541.285156 C 163.863281 541.632812 163.394531 542.027344 162.960938 542.46875 C 162.527344 542.90625 162.140625 543.382812 161.804688 543.898438 C 161.464844 544.414062 161.175781 544.957031 160.941406 545.527344 C 160.710938 546.097656 160.53125 546.683594 160.414062 547.289062 C 160.292969 547.894531 160.234375 548.507812 160.234375 549.121094 C 160.234375 549.738281 160.292969 550.351562 160.414062 550.957031 C 160.53125 551.558594 160.710938 552.148438 160.941406 552.71875 C 161.175781 553.289062 161.464844 553.832031 161.804688 554.347656 C 162.140625 554.863281 162.527344 555.339844 162.960938 555.777344 C 163.394531 556.21875 163.863281 556.609375 164.375 556.957031 C 164.882812 557.304688 165.421875 557.601562 165.988281 557.84375 C 166.554688 558.085938 167.140625 558.273438 167.742188 558.402344 C 168.347656 558.53125 168.957031 558.597656 169.574219 558.609375 L 200.980469 558.609375 L 231.492188 581.371094 C 233.496094 582.859375 235.683594 583.996094 238.050781 584.78125 C 240.417969 585.566406 242.847656 585.960938 245.34375 585.964844 L 315.554688 585.964844 C 318.050781 585.960938 320.480469 585.566406 322.84375 584.777344 C 325.210938 583.992188 327.394531 582.859375 329.398438 581.371094 L 359.910156 558.609375 L 391.328125 558.609375 C 391.941406 558.597656 392.550781 558.527344 393.152344 558.398438 C 393.753906 558.265625 394.339844 558.078125 394.902344 557.835938 C 395.46875 557.59375 396.003906 557.296875 396.511719 556.949219 C 397.019531 556.601562 397.488281 556.207031 397.921875 555.769531 C 398.351562 555.328125 398.738281 554.851562 399.074219 554.339844 C 399.414062 553.824219 399.699219 553.28125 399.933594 552.710938 C 400.164062 552.140625 400.339844 551.554688 400.457031 550.953125 C 400.578125 550.347656 400.636719 549.738281 400.636719 549.121094 C 400.636719 548.507812 400.578125 547.898438 400.457031 547.292969 C 400.339844 546.691406 400.164062 546.101562 399.929688 545.53125 C 399.699219 544.964844 399.414062 544.421875 399.074219 543.90625 C 398.734375 543.394531 398.351562 542.917969 397.921875 542.476562 C 397.488281 542.039062 397.019531 541.644531 396.511719 541.296875 C 396.003906 540.949219 395.46875 540.652344 394.902344 540.410156 C 394.335938 540.164062 393.753906 539.980469 393.152344 539.847656 C 392.550781 539.71875 391.941406 539.648438 391.328125 539.636719 L 348.785156 539.636719 C 353.175781 534.710938 357.246094 529.535156 361 524.109375 C 409.9375 523.992188 500.933594 524.21875 549.585938 524.15625 C 551.140625 524.152344 552.6875 524.078125 554.234375 523.921875 C 555.777344 523.769531 557.3125 523.539062 558.832031 523.238281 C 560.355469 522.933594 561.859375 522.554688 563.34375 522.101562 C 564.832031 521.652344 566.289062 521.128906 567.726562 520.535156 C 569.160156 519.9375 570.5625 519.277344 571.929688 518.542969 C 573.296875 517.8125 574.628906 517.011719 575.917969 516.152344 C 577.210938 515.289062 578.457031 514.363281 579.65625 513.378906 C 580.855469 512.394531 582.003906 511.351562 583.101562 510.253906 C 584.199219 509.15625 585.242188 508.007812 586.226562 506.808594 C 587.210938 505.609375 588.136719 504.363281 589 503.074219 C 589.863281 501.78125 590.660156 500.453125 591.394531 499.082031 C 592.125 497.714844 592.789062 496.3125 593.382812 494.878906 C 593.980469 493.445312 594.503906 491.984375 594.953125 490.5 C 595.40625 489.015625 595.785156 487.511719 596.089844 485.988281 C 596.394531 484.464844 596.621094 482.933594 596.777344 481.386719 C 596.929688 479.84375 597.007812 478.292969 597.011719 476.742188 L 597.011719 351.445312 C 674.460938 302.820312 640.238281 182.5625 548.539062 182.132812 Z M 147.679688 447.328125 L 173.855469 447.328125 C 176.371094 464.394531 181.089844 480.824219 188.019531 496.625 C 167.71875 490.839844 148.980469 463.136719 147.679688 447.328125 Z M 318.058594 566.160156 C 317.316406 566.714844 316.484375 566.996094 315.554688 566.992188 L 245.34375 566.992188 C 243.136719 567.398438 234.515625 559.566406 232.707031 558.609375 L 328.183594 558.609375 Z M 239.402344 539.636719 C 235.964844 536.109375 232.683594 532.445312 229.566406 528.636719 C 226.449219 524.824219 223.5 520.886719 220.722656 516.824219 C 217.945312 512.757812 215.347656 508.578125 212.933594 504.289062 C 210.519531 500 208.296875 495.609375 206.265625 491.128906 C 204.230469 486.644531 202.398438 482.078125 200.761719 477.4375 C 199.125 472.792969 197.691406 468.085938 196.460938 463.320312 C 195.234375 458.550781 194.214844 453.742188 193.40625 448.882812 C 192.59375 444.027344 191.996094 439.144531 191.613281 434.238281 L 370.234375 434.65625 C 370.207031 439.625 369.917969 444.582031 369.363281 449.519531 C 368.808594 454.460938 367.992188 459.359375 366.917969 464.210938 C 365.839844 469.0625 364.503906 473.84375 362.917969 478.554688 C 361.328125 483.265625 359.492188 487.878906 357.414062 492.394531 C 355.332031 496.90625 353.015625 501.296875 350.464844 505.566406 C 347.914062 509.832031 345.144531 513.949219 342.152344 517.921875 C 339.160156 521.890625 335.96875 525.691406 332.570312 529.320312 C 329.175781 532.949219 325.59375 536.390625 321.828125 539.636719 Z M 383.574219 420.953125 C 382.679688 420.046875 381.707031 419.242188 380.652344 418.53125 C 379.597656 417.820312 378.484375 417.21875 377.308594 416.730469 C 376.136719 416.242188 374.925781 415.875 373.679688 415.628906 C 372.429688 415.382812 371.171875 415.261719 369.898438 415.265625 L 294.980469 415.265625 L 294.980469 345.976562 C 294.984375 337.453125 284.960938 335.988281 279.835938 330.960938 C 225.316406 289.941406 256.683594 200.09375 324.546875 201.023438 C 324.957031 201.105469 465.664062 200.863281 466.015625 201.105469 L 474.5 201.105469 C 541.609375 203.800781 555.617188 292.089844 517.261719 325.125 C 512.332031 330.140625 506.761719 334.300781 500.550781 337.601562 C 499.792969 338.007812 499.105469 338.507812 498.480469 339.101562 C 497.859375 339.695312 497.328125 340.359375 496.882812 341.097656 C 496.441406 341.835938 496.105469 342.617188 495.875 343.445312 C 495.648438 344.273438 495.53125 345.117188 495.53125 345.976562 L 495.53125 468.246094 C 495.53125 469.453125 495.46875 470.660156 495.347656 471.859375 C 495.230469 473.0625 495.050781 474.257812 494.8125 475.441406 C 494.578125 476.625 494.285156 477.796875 493.933594 478.949219 C 493.578125 480.105469 493.171875 481.242188 492.710938 482.359375 C 492.246094 483.472656 491.730469 484.5625 491.160156 485.628906 C 490.589844 486.695312 489.96875 487.730469 489.296875 488.734375 C 488.625 489.738281 487.90625 490.707031 487.140625 491.640625 C 486.375 492.574219 485.5625 493.464844 484.710938 494.320312 C 483.855469 495.175781 482.960938 495.984375 482.027344 496.75 C 481.09375 497.519531 480.125 498.238281 479.121094 498.90625 C 478.117188 499.578125 477.082031 500.199219 476.015625 500.769531 C 474.949219 501.339844 473.859375 501.855469 472.746094 502.316406 C 471.628906 502.78125 470.492188 503.1875 469.335938 503.539062 C 468.179688 503.890625 467.011719 504.183594 465.828125 504.421875 C 464.640625 504.65625 463.449219 504.835938 462.246094 504.953125 C 461.042969 505.074219 459.839844 505.132812 458.632812 505.136719 L 372.246094 505.136719 C 377.773438 494.230469 381.972656 482.835938 384.835938 470.949219 C 387.699219 459.066406 389.15625 447.007812 389.207031 434.785156 C 389.222656 433.5 389.109375 432.230469 388.871094 430.972656 C 388.628906 429.710938 388.269531 428.488281 387.785156 427.300781 C 387.300781 426.113281 386.703125 424.984375 385.996094 423.917969 C 385.289062 422.847656 384.480469 421.859375 383.574219 420.953125 Z M 599.882812 325.058594 C 594.871094 330.070312 589.25 334.265625 583.019531 337.640625 C 582.265625 338.046875 581.582031 338.546875 580.964844 339.136719 C 580.34375 339.726562 579.816406 340.390625 579.378906 341.125 C 578.9375 341.859375 578.605469 342.640625 578.378906 343.464844 C 578.152344 344.292969 578.035156 345.132812 578.035156 345.988281 L 578.035156 476.742188 C 578.035156 477.671875 577.988281 478.601562 577.894531 479.527344 C 577.804688 480.453125 577.667969 481.375 577.484375 482.289062 C 577.300781 483.203125 577.074219 484.105469 576.804688 484.996094 C 576.53125 485.886719 576.21875 486.761719 575.859375 487.621094 C 575.503906 488.480469 575.105469 489.320312 574.667969 490.144531 C 574.226562 490.964844 573.746094 491.761719 573.230469 492.535156 C 572.710938 493.308594 572.15625 494.058594 571.566406 494.777344 C 570.976562 495.496094 570.351562 496.1875 569.691406 496.84375 C 569.035156 497.503906 568.34375 498.128906 567.625 498.71875 C 566.90625 499.308594 566.15625 499.863281 565.382812 500.378906 C 564.609375 500.898438 563.8125 501.375 562.988281 501.816406 C 562.167969 502.253906 561.328125 502.652344 560.46875 503.007812 C 559.605469 503.367188 558.730469 503.679688 557.839844 503.949219 C 556.949219 504.222656 556.046875 504.449219 555.132812 504.632812 C 554.21875 504.8125 553.300781 504.949219 552.375 505.042969 C 551.445312 505.132812 550.519531 505.179688 549.585938 505.183594 L 500.4375 505.183594 C 502.683594 502.660156 504.679688 499.957031 506.433594 497.070312 C 508.1875 494.183594 509.664062 491.164062 510.867188 488.007812 C 512.066406 484.851562 512.972656 481.613281 513.585938 478.292969 C 514.195312 474.972656 514.503906 471.621094 514.503906 468.246094 L 514.503906 351.453125 C 515.765625 350.648438 517.007812 349.808594 518.234375 348.945312 C 519.457031 348.078125 520.65625 347.183594 521.835938 346.257812 C 523.019531 345.335938 524.175781 344.382812 525.308594 343.40625 C 526.445312 342.425781 527.554688 341.421875 528.640625 340.386719 C 529.726562 339.355469 530.789062 338.296875 531.824219 337.214844 C 532.859375 336.132812 533.867188 335.023438 534.851562 333.890625 C 535.835938 332.761719 536.789062 331.605469 537.714844 330.429688 C 538.644531 329.25 539.542969 328.050781 540.410156 326.832031 C 541.28125 325.613281 542.121094 324.371094 542.933594 323.109375 C 543.742188 321.851562 544.523438 320.570312 545.269531 319.273438 C 546.019531 317.972656 546.738281 316.660156 547.421875 315.328125 C 548.109375 313.992188 548.761719 312.644531 549.382812 311.28125 C 550.007812 309.917969 550.59375 308.539062 551.148438 307.148438 C 551.703125 305.757812 552.226562 304.351562 552.714844 302.933594 C 553.203125 301.519531 553.65625 300.089844 554.074219 298.652344 C 554.496094 297.210938 554.878906 295.765625 555.230469 294.308594 C 555.582031 292.851562 555.894531 291.386719 556.175781 289.914062 C 556.457031 288.441406 556.699219 286.964844 556.910156 285.480469 C 557.117188 283.996094 557.292969 282.507812 557.429688 281.015625 C 557.566406 279.523438 557.667969 278.027344 557.734375 276.53125 C 557.800781 275.03125 557.832031 273.535156 557.828125 272.035156 C 557.820312 270.539062 557.78125 269.039062 557.703125 267.542969 C 557.625 266.046875 557.511719 264.550781 557.363281 263.0625 C 557.214844 261.570312 557.027344 260.082031 556.808594 258.601562 C 556.589844 257.117188 556.332031 255.640625 556.042969 254.171875 C 555.75 252.703125 555.425781 251.238281 555.0625 249.785156 C 554.703125 248.332031 554.308594 246.886719 553.875 245.449219 C 553.445312 244.015625 552.980469 242.589844 552.484375 241.175781 C 551.984375 239.761719 551.453125 238.363281 550.886719 236.976562 C 550.320312 235.585938 549.722656 234.214844 549.089844 232.855469 C 548.457031 231.496094 547.796875 230.152344 547.097656 228.824219 C 546.402344 227.5 545.675781 226.1875 544.917969 224.894531 C 539.988281 215.683594 533.492188 207.753906 525.429688 201.105469 L 548.539062 201.105469 C 612.304688 200.355469 645.644531 280.613281 599.882812 325.058594 Z M 599.882812 325.058594 " fill-opacity="1" fill-rule="nonzero"/></g><path fill="#faf9f7" d="M 316.03125 307.585938 C 298.890625 283.316406 300.9375 258 312.433594 231.5625 C 310.328125 233.5 308.363281 235.566406 306.539062 237.769531 C 304.714844 239.972656 303.046875 242.289062 301.539062 244.714844 C 300.027344 247.144531 298.691406 249.664062 297.523438 252.273438 C 296.355469 254.882812 295.367188 257.5625 294.5625 260.304688 C 293.757812 263.046875 293.144531 265.835938 292.714844 268.660156 C 292.289062 271.488281 292.054688 274.332031 292.015625 277.191406 C 291.972656 280.050781 292.125 282.898438 292.472656 285.738281 C 292.816406 288.578125 293.355469 291.378906 294.078125 294.144531 C 301.253906 314.289062 315.53125 329.800781 316.207031 351.449219 C 316.933594 365.367188 315.675781 379.101562 312.429688 392.65625 C 313.539062 391.136719 314.589844 389.578125 315.585938 387.980469 C 316.578125 386.382812 317.515625 384.753906 318.386719 383.085938 C 319.261719 381.421875 320.074219 379.726562 320.824219 378 C 321.574219 376.273438 322.257812 374.523438 322.878906 372.746094 C 323.5 370.972656 324.054688 369.175781 324.542969 367.359375 C 325.03125 365.542969 325.453125 363.710938 325.808594 361.863281 C 326.164062 360.015625 326.449219 358.15625 326.664062 356.289062 C 326.882812 354.417969 327.03125 352.546875 327.109375 350.664062 C 327.191406 348.785156 327.199219 346.90625 327.140625 345.027344 C 327.082031 343.144531 326.957031 341.269531 326.757812 339.398438 C 326.5625 337.527344 326.296875 335.667969 325.964844 333.816406 C 325.628906 331.964844 325.230469 330.125 324.761719 328.304688 C 324.292969 326.484375 323.757812 324.679688 323.15625 322.898438 C 322.554688 321.113281 321.890625 319.355469 321.160156 317.625 C 320.429688 315.890625 319.636719 314.183594 318.777344 312.507812 C 317.921875 310.835938 317.007812 309.191406 316.03125 307.585938 Z M 316.03125 307.585938 " fill-opacity="1" fill-rule="nonzero"/><path fill="#faf9f7" d="M 219.269531 314.558594 C 234.769531 338.542969 234.21875 365.222656 228.0625 392.65625 C 229.171875 391.136719 230.222656 389.578125 231.21875 387.980469 C 232.210938 386.382812 233.144531 384.753906 234.019531 383.085938 C 234.894531 381.421875 235.707031 379.726562 236.457031 378 C 237.207031 376.273438 237.890625 374.523438 238.511719 372.75 C 239.132812 370.972656 239.6875 369.175781 240.175781 367.359375 C 240.664062 365.542969 241.085938 363.710938 241.441406 361.863281 C 241.792969 360.015625 242.078125 358.15625 242.296875 356.289062 C 242.515625 354.417969 242.664062 352.546875 242.742188 350.664062 C 242.820312 348.785156 242.832031 346.90625 242.773438 345.027344 C 242.714844 343.144531 242.585938 341.269531 242.390625 339.398438 C 242.195312 337.527344 241.929688 335.667969 241.59375 333.816406 C 241.261719 331.964844 240.859375 330.125 240.390625 328.304688 C 239.921875 326.484375 239.386719 324.679688 238.785156 322.898438 C 238.183594 321.117188 237.519531 319.355469 236.789062 317.625 C 236.058594 315.890625 235.265625 314.183594 234.410156 312.511719 C 233.554688 310.835938 232.636719 309.191406 231.660156 307.585938 C 227.84375 302.28125 224.855469 296.542969 222.6875 290.378906 C 220.519531 284.214844 219.265625 277.867188 218.921875 271.34375 C 219.097656 264.472656 219.957031 257.691406 221.496094 250.992188 C 223.035156 244.296875 225.222656 237.820312 228.0625 231.5625 C 226.671875 232.855469 225.339844 234.207031 224.070312 235.617188 C 222.796875 237.027344 221.59375 238.492188 220.453125 240.011719 C 219.316406 241.53125 218.246094 243.097656 217.25 244.710938 C 216.25 246.328125 215.324219 247.984375 214.476562 249.679688 C 213.625 251.378906 212.855469 253.109375 212.160156 254.878906 C 211.464844 256.644531 210.851562 258.4375 210.316406 260.261719 C 209.785156 262.082031 209.332031 263.925781 208.964844 265.789062 C 208.597656 267.652344 208.3125 269.527344 208.113281 271.414062 C 207.910156 273.300781 207.796875 275.195312 207.765625 277.09375 C 207.734375 278.992188 207.792969 280.886719 207.929688 282.78125 C 208.070312 284.675781 208.296875 286.558594 208.605469 288.429688 C 208.914062 290.304688 209.304688 292.160156 209.78125 293.996094 C 210.257812 295.835938 210.8125 297.648438 211.449219 299.4375 C 212.089844 301.226562 212.804688 302.980469 213.601562 304.703125 C 214.398438 306.429688 215.269531 308.113281 216.214844 309.757812 C 217.160156 311.40625 218.179688 313.003906 219.269531 314.558594 Z M 219.269531 314.558594 " fill-opacity="1" fill-rule="nonzero"/><path fill="#faf9f7" d="M 349.109375 487.226562 C 350.765625 484.078125 352.128906 480.808594 353.203125 477.417969 C 354.277344 474.027344 355.046875 470.570312 355.507812 467.042969 C 355.96875 463.515625 356.117188 459.976562 355.953125 456.425781 C 355.789062 452.871094 355.3125 449.359375 354.523438 445.890625 C 351.078125 458.691406 346.453125 471.046875 340.644531 482.957031 C 334.5 494.699219 327.316406 505.765625 319.09375 516.160156 C 322.355469 514.734375 325.460938 513.03125 328.417969 511.050781 C 331.375 509.074219 334.132812 506.851562 336.691406 504.382812 C 339.253906 501.914062 341.578125 499.238281 343.664062 496.355469 C 345.75 493.472656 347.566406 490.433594 349.109375 487.226562 Z M 349.109375 487.226562 " fill-opacity="1" fill-rule="nonzero"/></svg>