<svg xmlns="http://www.w3.org/2000/svg" xmlns:xlink="http://www.w3.org/1999/xlink" width="1024" zoomAndPan="magnify" viewBox="0 0 768 767.999994" height="1024" preserveAspectRatio="xMidYMid meet" version="1.0"><defs><clipPath id="5911b8b2e4"><path d="M 126 107.285156 L 641.960938 107.285156 L 641.960938 660.785156 L 126 660.785156 Z M 126 107.285156 " clip-rule="nonzero"/></clipPath></defs><g clip-path="url(#5911b8b2e4)"><path fill="#ffffff" d="M 641.953125 365.238281 C 641.953125 223.007812 526.238281 107.285156 383.996094 107.285156 C 241.757812 107.285156 126.042969 223.007812 126.042969 365.238281 C 126.042969 471.007812 189.019531 564.292969 286.695312 603.972656 L 285.503906 637.261719 C 285.503906 650.199219 296.03125 660.714844 308.957031 660.714844 L 327.714844 660.714844 C 340.640625 660.714844 351.167969 650.199219 351.167969 637.09375 L 350.585938 620.875 C 361.371094 622.3125 372.523438 623.191406 383.996094 623.191406 C 405.589844 623.191406 426.714844 620.425781 446.964844 615.238281 L 444.96875 637.261719 C 444.96875 650.199219 455.492188 660.714844 468.417969 660.714844 L 487.179688 660.714844 C 500.105469 660.714844 510.628906 650.199219 510.628906 637.261719 L 510.628906 589.929688 C 591.671875 544.222656 641.953125 458.429688 641.953125 365.238281 Z M 269.726562 351.402344 L 294.820312 376.484375 L 290.015625 510.957031 C 240.78125 479.140625 210.464844 424.070312 210.464844 365.238281 C 210.464844 320.597656 227.152344 279.117188 257.363281 247.011719 L 257.363281 321.554688 C 257.363281 332.828125 261.753906 343.4375 269.726562 351.402344 Z M 501.25 637.261719 C 501.25 645.019531 494.9375 651.332031 487.179688 651.332031 L 468.417969 651.332031 C 460.660156 651.332031 454.347656 645.019531 454.328125 637.683594 L 473.089844 431.320312 C 473.210938 429.941406 472.714844 428.5625 471.730469 427.585938 L 445.191406 401.0625 C 438.992188 394.859375 435.578125 386.617188 435.578125 377.835938 L 435.578125 374.617188 C 435.578125 276.070312 474.898438 191.703125 487.167969 191.703125 C 494.925781 191.703125 501.238281 198.019531 501.238281 205.773438 L 501.238281 637.261719 Z M 510.628906 246.964844 C 540.457031 278.921875 557.53125 321.320312 557.53125 365.238281 C 557.53125 409.804688 540.851562 451.339844 510.628906 483.617188 Z M 510.628906 579.019531 L 510.628906 497.132812 C 546.894531 462.257812 566.910156 415.535156 566.910156 365.238281 C 566.910156 315.636719 546.378906 267.777344 510.628906 233.457031 L 510.628906 205.773438 C 510.628906 192.839844 500.105469 182.324219 487.179688 182.324219 C 480.621094 182.324219 473.25 189.546875 465.941406 201.789062 C 446.28125 191.910156 425.25 185.589844 403.253906 183.289062 C 400.5625 182.960938 398.367188 184.894531 398.105469 187.464844 C 397.832031 190.035156 399.699219 192.351562 402.277344 192.613281 C 423.027344 194.789062 442.867188 200.738281 461.429688 210.023438 C 442.953125 246.371094 426.207031 312.851562 426.207031 374.617188 L 426.207031 377.835938 C 426.207031 389.109375 430.597656 399.71875 438.570312 407.691406 L 463.550781 432.671875 L 447.867188 605.371094 C 427.398438 610.914062 405.957031 613.8125 383.996094 613.8125 C 372.382812 613.8125 361.101562 612.921875 350.246094 611.402344 L 347.855469 544.472656 C 359.824219 546.867188 371.945312 548.152344 383.996094 548.152344 C 400.328125 548.152344 416.519531 546.011719 432.117188 541.792969 C 434.621094 541.117188 436.09375 538.535156 435.429688 536.042969 C 434.753906 533.535156 432.136719 532.09375 429.679688 532.738281 C 403.253906 539.867188 374.953125 540.65625 347.507812 534.8125 L 341.851562 376.476562 L 366.945312 351.394531 C 374.917969 343.417969 379.308594 332.820312 379.308594 321.535156 L 379.308594 187.015625 C 379.308594 184.425781 377.207031 182.324219 374.617188 182.324219 C 372.027344 182.324219 369.925781 184.425781 369.925781 187.015625 L 369.925781 321.554688 C 369.925781 330.335938 366.511719 338.570312 360.3125 344.78125 L 333.777344 371.308594 C 332.855469 372.226562 332.359375 373.484375 332.40625 374.785156 L 341.785156 637.261719 C 341.785156 645.019531 335.472656 651.332031 327.714844 651.332031 L 308.957031 651.332031 C 301.199219 651.332031 294.886719 645.019531 294.886719 637.429688 L 296.1875 600.933594 C 296.1875 600.886719 296.199219 600.839844 296.199219 600.785156 L 304.265625 374.777344 C 304.3125 373.472656 303.816406 372.214844 302.894531 371.296875 L 276.359375 344.769531 C 270.160156 338.570312 266.746094 330.324219 266.746094 321.546875 L 266.746094 187.015625 C 266.746094 184.425781 264.644531 182.324219 262.054688 182.324219 C 259.464844 182.324219 257.363281 184.425781 257.363281 187.015625 L 257.363281 233.53125 C 221.101562 268.21875 201.082031 314.875 201.082031 365.238281 C 201.082031 429.109375 234.964844 488.792969 289.632812 521.785156 L 287.054688 593.90625 C 194.761719 554.941406 135.421875 466 135.421875 365.238281 C 135.421875 228.175781 246.933594 116.664062 383.996094 116.664062 C 521.058594 116.664062 632.570312 228.175781 632.570312 365.238281 C 632.570312 453.242188 586 534.351562 510.628906 579.019531 Z M 304.265625 187.015625 L 304.265625 299.578125 C 304.265625 302.164062 302.164062 304.265625 299.574219 304.265625 C 296.988281 304.265625 294.886719 302.164062 294.886719 299.578125 L 294.886719 187.015625 C 294.886719 184.425781 296.988281 182.324219 299.574219 182.324219 C 302.164062 182.324219 304.265625 184.425781 304.265625 187.015625 Z M 341.785156 187.015625 L 341.785156 299.578125 C 341.785156 302.164062 339.683594 304.265625 337.097656 304.265625 C 334.507812 304.265625 332.40625 302.164062 332.40625 299.578125 L 332.40625 187.015625 C 332.40625 184.425781 334.507812 182.324219 337.097656 182.324219 C 339.683594 182.324219 341.785156 184.425781 341.785156 187.015625 Z M 341.785156 187.015625 " fill-opacity="1" fill-rule="nonzero"/></g></svg>