<svg xmlns="http://www.w3.org/2000/svg" xmlns:xlink="http://www.w3.org/1999/xlink" width="1024" zoomAndPan="magnify" viewBox="0 0 768 767.999994" height="1024" preserveAspectRatio="xMidYMid meet" version="1.0"><path fill="#ffffff" d="M 637.613281 530.574219 C 632.65625 487.660156 625.699219 444.960938 619.445312 402.191406 C 619.105469 399.757812 618.707031 397.335938 618.257812 394.921875 C 617.808594 392.511719 617.304688 390.109375 616.746094 387.71875 C 616.1875 385.328125 615.574219 382.949219 614.910156 380.585938 C 614.246094 378.222656 613.527344 375.875 612.757812 373.542969 C 611.988281 371.214844 611.167969 368.902344 610.292969 366.605469 C 609.417969 364.3125 608.496094 362.039062 607.519531 359.785156 C 606.542969 357.53125 605.515625 355.304688 604.441406 353.097656 C 603.363281 350.890625 602.238281 348.707031 601.066406 346.550781 C 599.890625 344.394531 598.671875 342.265625 597.402344 340.164062 C 596.132812 338.0625 594.816406 335.992188 593.453125 333.949219 C 592.089844 331.90625 590.683594 329.894531 589.230469 327.917969 C 587.777344 325.9375 586.28125 323.992188 584.742188 322.078125 C 583.203125 320.167969 581.621094 318.292969 579.996094 316.449219 C 578.375 314.609375 576.707031 312.804688 575.003906 311.039062 C 573.300781 309.273438 571.554688 307.542969 569.773438 305.855469 C 567.988281 304.167969 566.171875 302.519531 564.3125 300.914062 C 562.457031 299.308594 560.566406 297.742188 558.640625 296.222656 C 556.714844 294.699219 554.753906 293.222656 552.761719 291.789062 C 550.769531 290.355469 548.742188 288.964844 546.6875 287.625 C 544.632812 286.28125 542.550781 284.984375 540.4375 283.734375 C 538.324219 282.484375 536.183594 281.285156 534.015625 280.128906 C 531.847656 278.976562 529.65625 277.875 527.4375 276.816406 C 525.222656 275.761719 522.984375 274.757812 520.71875 273.804688 C 518.457031 272.847656 516.175781 271.945312 513.875 271.09375 C 511.570312 270.242188 509.25 269.441406 506.914062 268.695312 C 504.574219 267.945312 502.222656 267.25 499.851562 266.609375 C 497.480469 265.964844 495.097656 265.375 492.703125 264.839844 C 490.308594 264.304688 487.898438 263.824219 485.484375 263.394531 C 483.066406 262.96875 480.640625 262.597656 478.203125 262.277344 C 475.769531 261.957031 473.332031 261.695312 470.882812 261.484375 C 468.4375 261.277344 465.988281 261.121094 463.535156 261.023438 C 461.082031 260.921875 458.628906 260.878906 456.171875 260.890625 C 434.734375 260.890625 413.300781 260.890625 391.871094 260.890625 C 391.917969 259.746094 392.046875 258.613281 392.265625 257.488281 C 393.003906 254.171875 394.226562 251.042969 395.933594 248.101562 C 397.636719 245.164062 399.746094 242.546875 402.257812 240.257812 C 404.75 238.0625 407.519531 236.300781 410.5625 234.96875 C 411.699219 234.417969 411.734375 234.410156 410.660156 234.96875 C 411.855469 234.535156 413.054688 234.152344 414.273438 233.8125 C 416.105469 233.300781 417.941406 232.894531 419.847656 232.527344 C 420.46875 232.484375 421.078125 232.375 421.679688 232.207031 C 422.332031 232.136719 422.980469 232.050781 423.632812 231.996094 C 425.90625 231.777344 428.214844 231.613281 430.453125 231.476562 C 434.6875 231.21875 438.914062 231.0625 443.148438 230.789062 C 462.515625 229.550781 482.296875 225.472656 495.160156 209.585938 C 496.710938 207.410156 498.140625 205.15625 499.441406 202.824219 C 500.746094 200.488281 501.914062 198.089844 502.953125 195.628906 C 503.988281 193.164062 504.882812 190.652344 505.640625 188.085938 C 506.398438 185.523438 507.007812 182.925781 507.476562 180.296875 C 507.945312 177.664062 508.265625 175.015625 508.4375 172.347656 C 508.609375 169.679688 508.632812 167.011719 508.511719 164.34375 C 508.386719 161.671875 508.113281 159.019531 507.695312 156.378906 C 507.277344 153.738281 506.710938 151.132812 506.003906 148.554688 C 505.839844 147.980469 505.648438 147.410156 505.425781 146.855469 C 505.207031 146.296875 504.964844 145.75 504.691406 145.214844 C 504.417969 144.683594 504.121094 144.164062 503.800781 143.65625 C 503.476562 143.152344 503.128906 142.664062 502.761719 142.191406 C 502.390625 141.71875 502 141.269531 501.585938 140.835938 C 501.171875 140.402344 500.738281 139.988281 500.28125 139.597656 C 499.828125 139.207031 499.355469 138.835938 498.867188 138.492188 C 498.378906 138.148438 497.871094 137.824219 497.351562 137.527344 C 496.832031 137.234375 496.296875 136.960938 495.75 136.71875 C 495.203125 136.472656 494.644531 136.253906 494.074219 136.066406 C 493.507812 135.875 492.929688 135.710938 492.347656 135.578125 C 491.761719 135.441406 491.171875 135.335938 490.578125 135.261719 C 489.984375 135.183594 489.386719 135.132812 488.789062 135.113281 C 488.191406 135.097656 487.589844 135.105469 486.992188 135.144531 C 486.394531 135.183594 485.800781 135.25 485.210938 135.347656 C 484.617188 135.445312 484.03125 135.570312 483.453125 135.722656 C 482.878906 135.890625 482.316406 136.085938 481.761719 136.3125 C 481.207031 136.535156 480.664062 136.78125 480.132812 137.058594 C 479.601562 137.332031 479.085938 137.632812 478.582031 137.957031 C 478.082031 138.28125 477.597656 138.632812 477.128906 139.003906 C 476.660156 139.375 476.210938 139.765625 475.777344 140.179688 C 475.347656 140.59375 474.9375 141.027344 474.546875 141.484375 C 474.160156 141.9375 473.792969 142.40625 473.449219 142.898438 C 473.105469 143.386719 472.785156 143.890625 472.488281 144.410156 C 472.195312 144.929688 471.921875 145.460938 471.679688 146.007812 C 471.433594 146.550781 471.214844 147.109375 471.023438 147.675781 C 470.832031 148.242188 470.667969 148.816406 470.535156 149.398438 C 470.398438 149.980469 470.289062 150.566406 470.210938 151.160156 C 470.128906 151.75 470.078125 152.347656 470.054688 152.945312 C 470.03125 153.542969 470.039062 154.136719 470.074219 154.734375 C 470.105469 155.332031 470.171875 155.925781 470.261719 156.515625 C 470.351562 157.109375 470.472656 157.691406 470.621094 158.273438 C 471.882812 165.46875 471.777344 172.648438 470.300781 179.804688 C 469.988281 181.03125 469.539062 182.207031 468.953125 183.328125 C 468.363281 184.449219 467.65625 185.488281 466.824219 186.445312 C 465.992188 187.398438 465.0625 188.246094 464.03125 188.980469 C 463.003906 189.71875 461.902344 190.324219 460.730469 190.804688 C 460.554688 190.730469 456.53125 192.195312 455.960938 192.34375 C 454.441406 192.71875 452.917969 193.003906 451.378906 193.261719 C 451.453125 193.195312 447.53125 193.746094 446.953125 193.792969 C 444.707031 193.976562 442.453125 194.113281 440.195312 194.242188 C 430.425781 194.566406 420.710938 195.464844 411.046875 196.945312 C 408.5625 197.390625 406.109375 197.96875 403.6875 198.6875 C 401.265625 199.402344 398.890625 200.25 396.5625 201.230469 C 394.238281 202.210938 391.972656 203.316406 389.765625 204.546875 C 387.5625 205.777344 385.433594 207.128906 383.378906 208.59375 C 381.324219 210.0625 379.355469 211.640625 377.476562 213.324219 C 375.597656 215.011719 373.816406 216.796875 372.132812 218.679688 C 370.453125 220.5625 368.878906 222.535156 367.417969 224.589844 C 365.953125 226.648438 364.609375 228.78125 363.382812 230.988281 C 360.921875 235.582031 359.027344 240.394531 357.695312 245.429688 C 356.363281 250.460938 355.632812 255.582031 355.5 260.789062 C 340.601562 260.789062 325.714844 260.734375 310.832031 260.992188 C 300.25 261.09375 289.75 262.046875 279.324219 263.859375 C 275.253906 264.625 271.21875 265.542969 267.214844 266.613281 C 263.214844 267.6875 259.257812 268.90625 255.347656 270.28125 C 251.4375 271.652344 247.589844 273.171875 243.792969 274.835938 C 240 276.5 236.277344 278.308594 232.621094 280.257812 C 228.964844 282.203125 225.386719 284.289062 221.886719 286.507812 C 218.390625 288.730469 214.980469 291.078125 211.664062 293.558594 C 208.34375 296.035156 205.125 298.636719 202 301.363281 C 198.878906 304.085938 195.867188 306.925781 192.960938 309.878906 C 190.054688 312.832031 187.265625 315.890625 184.59375 319.054688 C 181.917969 322.21875 179.371094 325.480469 176.945312 328.839844 C 174.519531 332.199219 172.226562 335.644531 170.0625 339.179688 C 167.898438 342.710938 165.875 346.324219 163.984375 350.011719 C 162.097656 353.699219 160.351562 357.453125 158.746094 361.269531 C 157.144531 365.089844 155.6875 368.964844 154.378906 372.898438 C 153.070312 376.828125 151.910156 380.804688 150.90625 384.820312 C 149.898438 388.839844 149.046875 392.890625 148.347656 396.976562 C 141.480469 440.441406 135.550781 484.066406 129.628906 527.679688 C 129.15625 530.746094 128.855469 533.832031 128.734375 536.9375 C 128.609375 540.039062 128.664062 543.136719 128.890625 546.234375 C 129.121094 549.332031 129.523438 552.402344 130.101562 555.453125 C 130.679688 558.503906 131.429688 561.511719 132.351562 564.480469 C 133.269531 567.445312 134.355469 570.347656 135.605469 573.191406 C 136.855469 576.03125 138.265625 578.792969 139.828125 581.476562 C 141.390625 584.160156 143.105469 586.742188 144.960938 589.230469 C 146.820312 591.71875 148.8125 594.09375 150.941406 596.355469 C 152.121094 597.667969 153.339844 598.945312 154.597656 600.183594 C 155.855469 601.421875 157.152344 602.617188 158.484375 603.777344 C 159.820312 604.933594 161.1875 606.050781 162.585938 607.125 C 163.988281 608.195312 165.421875 609.226562 166.890625 610.210938 C 168.355469 611.195312 169.847656 612.132812 171.371094 613.027344 C 172.894531 613.917969 174.445312 614.761719 176.023438 615.558594 C 177.597656 616.355469 179.195312 617.101562 180.820312 617.800781 C 182.441406 618.496094 184.082031 619.144531 185.746094 619.738281 C 187.40625 620.335938 189.085938 620.878906 190.78125 621.371094 C 192.476562 621.863281 194.1875 622.304688 195.910156 622.6875 C 197.632812 623.074219 199.367188 623.40625 201.109375 623.6875 C 202.851562 623.964844 204.601562 624.191406 206.359375 624.363281 C 208.117188 624.53125 209.878906 624.648438 211.644531 624.710938 C 213.40625 624.773438 215.171875 624.78125 216.9375 624.734375 C 218.703125 624.683594 220.464844 624.582031 222.222656 624.425781 C 223.980469 624.269531 225.734375 624.058594 227.480469 623.796875 C 229.226562 623.53125 230.960938 623.210938 232.6875 622.839844 C 234.414062 622.46875 236.125 622.042969 237.824219 621.566406 C 239.527344 621.085938 241.210938 620.554688 242.875 619.972656 C 244.542969 619.390625 246.191406 618.757812 247.816406 618.074219 C 249.445312 617.390625 251.050781 616.65625 252.632812 615.875 C 254.214844 615.089844 255.773438 614.257812 257.304688 613.378906 C 258.832031 612.5 260.335938 611.574219 261.808594 610.601562 C 263.285156 609.628906 264.726562 608.609375 266.136719 607.546875 C 267.546875 606.488281 268.921875 605.382812 270.265625 604.234375 C 271.609375 603.089844 272.914062 601.902344 274.183594 600.671875 C 275.453125 599.445312 276.679688 598.179688 277.871094 596.875 C 279.0625 595.570312 280.210938 594.230469 281.320312 592.855469 C 282.425781 591.480469 283.492188 590.074219 284.511719 588.632812 C 285.53125 587.191406 286.507812 585.722656 287.4375 584.222656 C 288.367188 582.71875 289.25 581.191406 290.082031 579.636719 C 290.917969 578.078125 291.707031 576.5 292.441406 574.894531 C 301.554688 556.175781 311.003906 537.632812 320.234375 518.980469 C 320.441406 518.4375 320.726562 517.9375 321.09375 517.488281 C 321.460938 517.039062 321.894531 516.660156 322.386719 516.351562 C 322.878906 516.042969 323.40625 515.824219 323.972656 515.691406 C 324.539062 515.554688 325.109375 515.515625 325.6875 515.570312 C 364.1875 515.675781 402.6875 515.675781 441.1875 515.570312 C 441.765625 515.503906 442.339844 515.53125 442.90625 515.652344 C 443.476562 515.777344 444.007812 515.988281 444.507812 516.289062 C 445.003906 516.589844 445.441406 516.964844 445.8125 517.414062 C 446.1875 517.859375 446.476562 518.355469 446.6875 518.898438 C 455.851562 537.421875 465.277344 555.792969 474.285156 574.390625 C 475.363281 576.773438 476.546875 579.105469 477.835938 581.378906 C 479.125 583.65625 480.515625 585.867188 482.007812 588.011719 C 483.503906 590.160156 485.089844 592.234375 486.773438 594.238281 C 488.457031 596.238281 490.226562 598.160156 492.085938 600 C 493.945312 601.839844 495.882812 603.589844 497.902344 605.25 C 499.921875 606.914062 502.015625 608.480469 504.179688 609.949219 C 506.339844 611.417969 508.566406 612.785156 510.855469 614.050781 C 513.144531 615.320312 515.484375 616.476562 517.878906 617.527344 C 520.273438 618.578125 522.714844 619.519531 525.195312 620.347656 C 527.675781 621.175781 530.1875 621.886719 532.734375 622.484375 C 535.28125 623.082031 537.847656 623.558594 540.4375 623.921875 C 543.03125 624.285156 545.628906 624.527344 548.242188 624.648438 C 550.855469 624.773438 553.46875 624.777344 556.082031 624.660156 C 558.695312 624.542969 561.296875 624.308594 563.886719 623.953125 C 566.476562 623.597656 569.046875 623.125 571.59375 622.535156 C 574.144531 621.941406 576.65625 621.238281 579.140625 620.417969 C 581.449219 619.6875 583.722656 618.859375 585.957031 617.933594 C 588.195312 617.007812 590.386719 615.988281 592.539062 614.875 C 594.6875 613.757812 596.785156 612.554688 598.832031 611.261719 C 600.875 609.964844 602.863281 608.585938 604.789062 607.121094 C 606.714844 605.65625 608.578125 604.109375 610.371094 602.484375 C 612.164062 600.859375 613.886719 599.160156 615.535156 597.386719 C 617.183594 595.613281 618.75 593.773438 620.242188 591.867188 C 621.730469 589.957031 623.136719 587.988281 624.457031 585.960938 C 625.777344 583.933594 627.007812 581.851562 628.148438 579.714844 C 629.289062 577.582031 630.339844 575.402344 631.292969 573.175781 C 632.246094 570.953125 633.105469 568.691406 633.863281 566.390625 C 634.621094 564.09375 635.28125 561.765625 635.84375 559.410156 C 636.402344 557.054688 636.859375 554.679688 637.214844 552.285156 C 637.570312 549.890625 637.820312 547.484375 637.96875 545.070312 C 638.117188 542.652344 638.164062 540.234375 638.101562 537.816406 C 638.042969 535.394531 637.878906 532.980469 637.613281 530.574219 Z M 328.75 406.351562 L 292.496094 406.351562 L 292.496094 442.488281 L 256.5 442.488281 L 256.5 406.554688 L 219.835938 406.554688 C 219.835938 394.636719 219.761719 383.492188 220 372.335938 C 220 371.554688 222.363281 370.191406 223.667969 370.164062 C 232.660156 369.980469 241.660156 370.070312 250.652344 370.082031 L 256.152344 370.082031 L 256.152344 334.175781 L 292.3125 334.175781 L 292.3125 370.082031 C 303.378906 370.082031 313.617188 370.246094 323.835938 370 C 327.796875 369.898438 329 371.050781 328.878906 375.058594 C 328.539062 385.277344 328.75 395.515625 328.75 406.351562 Z M 492.828125 315.667969 C 493.621094 315.675781 494.410156 315.71875 495.199219 315.800781 C 495.984375 315.886719 496.765625 316.007812 497.542969 316.167969 C 498.316406 316.328125 499.082031 316.523438 499.839844 316.761719 C 500.59375 316.996094 501.335938 317.269531 502.066406 317.578125 C 502.792969 317.882812 503.507812 318.226562 504.203125 318.605469 C 504.898438 318.984375 505.570312 319.398438 506.226562 319.84375 C 506.882812 320.289062 507.511719 320.765625 508.121094 321.269531 C 508.726562 321.777344 509.308594 322.3125 509.863281 322.878906 C 510.417969 323.441406 510.945312 324.03125 511.441406 324.648438 C 511.9375 325.265625 512.40625 325.90625 512.839844 326.566406 C 513.273438 327.230469 513.671875 327.910156 514.039062 328.613281 C 514.40625 329.3125 514.738281 330.03125 515.035156 330.765625 C 515.332031 331.5 515.589844 332.246094 515.8125 333.003906 C 516.035156 333.765625 516.222656 334.535156 516.367188 335.3125 C 516.515625 336.089844 516.625 336.871094 516.695312 337.660156 C 516.765625 338.449219 516.792969 339.238281 516.785156 340.03125 C 516.777344 340.824219 516.734375 341.613281 516.648438 342.398438 C 516.5625 343.1875 516.4375 343.96875 516.277344 344.742188 C 516.113281 345.515625 515.914062 346.28125 515.675781 347.035156 C 515.4375 347.792969 515.164062 348.53125 514.851562 349.261719 C 514.542969 349.988281 514.195312 350.699219 513.816406 351.394531 C 513.4375 352.089844 513.023438 352.761719 512.574219 353.414062 C 512.128906 354.070312 511.648438 354.699219 511.140625 355.304688 C 510.632812 355.910156 510.09375 356.492188 509.527344 357.042969 C 508.960938 357.597656 508.371094 358.121094 507.753906 358.617188 C 507.136719 359.113281 506.496094 359.578125 505.832031 360.007812 C 505.167969 360.441406 504.484375 360.839844 503.785156 361.203125 C 503.082031 361.570312 502.363281 361.898438 501.628906 362.191406 C 500.890625 362.488281 500.144531 362.746094 499.382812 362.964844 C 498.625 363.183594 497.855469 363.367188 497.078125 363.511719 C 496.296875 363.65625 495.515625 363.765625 494.726562 363.832031 C 493.9375 363.898438 493.148438 363.929688 492.355469 363.917969 C 491.5625 363.910156 490.773438 363.859375 489.988281 363.773438 C 489.203125 363.683594 488.421875 363.558594 487.648438 363.394531 C 486.871094 363.230469 486.109375 363.027344 485.355469 362.785156 C 484.597656 362.546875 483.859375 362.269531 483.132812 361.957031 C 482.40625 361.644531 481.695312 361.296875 481 360.914062 C 480.308594 360.53125 479.636719 360.117188 478.984375 359.667969 C 478.332031 359.21875 477.703125 358.738281 477.097656 358.230469 C 476.492188 357.71875 475.914062 357.179688 475.363281 356.609375 C 474.8125 356.042969 474.289062 355.449219 473.796875 354.832031 C 473.300781 354.210938 472.839844 353.570312 472.410156 352.90625 C 471.980469 352.242188 471.582031 351.558594 471.21875 350.855469 C 470.859375 350.152344 470.53125 349.429688 470.238281 348.695312 C 469.945312 347.960938 469.691406 347.210938 469.472656 346.449219 C 469.253906 345.6875 469.074219 344.917969 468.929688 344.140625 C 468.789062 343.363281 468.683594 342.578125 468.617188 341.789062 C 468.554688 341 468.527344 340.210938 468.539062 339.417969 C 468.546875 338.632812 468.597656 337.851562 468.683594 337.070312 C 468.769531 336.289062 468.894531 335.515625 469.054688 334.746094 C 469.21875 333.980469 469.417969 333.222656 469.65625 332.472656 C 469.890625 331.722656 470.164062 330.988281 470.472656 330.265625 C 470.78125 329.542969 471.125 328.839844 471.503906 328.152344 C 471.882812 327.464844 472.292969 326.796875 472.734375 326.148438 C 473.179688 325.5 473.652344 324.875 474.160156 324.273438 C 474.664062 323.671875 475.195312 323.097656 475.757812 322.546875 C 476.320312 322 476.90625 321.480469 477.519531 320.988281 C 478.128906 320.496094 478.765625 320.035156 479.421875 319.605469 C 480.082031 319.179688 480.757812 318.78125 481.453125 318.417969 C 482.148438 318.054688 482.863281 317.730469 483.589844 317.4375 C 484.320312 317.144531 485.0625 316.886719 485.816406 316.667969 C 486.570312 316.445312 487.332031 316.265625 488.101562 316.117188 C 488.875 315.972656 489.652344 315.867188 490.433594 315.796875 C 491.214844 315.726562 492 315.699219 492.785156 315.707031 Z M 444.246094 412.421875 C 443.457031 412.421875 442.667969 412.386719 441.878906 412.3125 C 441.089844 412.238281 440.308594 412.128906 439.53125 411.976562 C 438.757812 411.824219 437.988281 411.636719 437.230469 411.410156 C 436.472656 411.183594 435.726562 410.917969 434.996094 410.621094 C 434.261719 410.320312 433.546875 409.984375 432.847656 409.613281 C 432.148438 409.246094 431.46875 408.839844 430.808594 408.402344 C 430.148438 407.96875 429.511719 407.5 428.898438 407 C 428.285156 406.5 427.699219 405.972656 427.136719 405.414062 C 426.574219 404.855469 426.042969 404.273438 425.535156 403.664062 C 425.03125 403.054688 424.558594 402.421875 424.117188 401.765625 C 423.675781 401.109375 423.265625 400.433594 422.890625 399.734375 C 422.515625 399.039062 422.175781 398.328125 421.867188 397.597656 C 421.5625 396.867188 421.292969 396.125 421.0625 395.367188 C 420.828125 394.613281 420.632812 393.84375 420.476562 393.070312 C 420.320312 392.292969 420.199219 391.511719 420.121094 390.726562 C 420.039062 389.9375 419.996094 389.148438 419.992188 388.359375 C 419.992188 387.566406 420.027344 386.777344 420.101562 385.992188 C 420.175781 385.203125 420.289062 384.421875 420.441406 383.644531 C 420.589844 382.867188 420.78125 382.101562 421.007812 381.34375 C 421.234375 380.582031 421.5 379.839844 421.796875 379.105469 C 422.097656 378.375 422.433594 377.660156 422.804688 376.960938 C 423.175781 376.261719 423.578125 375.582031 424.015625 374.921875 C 424.453125 374.261719 424.921875 373.625 425.421875 373.011719 C 425.921875 372.398438 426.449219 371.8125 427.007812 371.25 C 427.5625 370.6875 428.148438 370.15625 428.757812 369.652344 C 429.367188 369.148438 430 368.675781 430.65625 368.230469 C 431.3125 367.789062 431.988281 367.382812 432.6875 367.007812 C 433.382812 366.628906 434.097656 366.289062 434.824219 365.984375 C 435.554688 365.679688 436.296875 365.410156 437.054688 365.179688 C 437.8125 364.945312 438.578125 364.75 439.351562 364.59375 C 440.128906 364.4375 440.910156 364.320312 441.695312 364.238281 C 442.484375 364.15625 443.273438 364.117188 444.066406 364.113281 C 444.855469 364.109375 445.644531 364.148438 446.433594 364.222656 C 447.21875 364.296875 448.003906 364.410156 448.78125 364.5625 C 449.554688 364.714844 450.324219 364.902344 451.082031 365.128906 C 451.839844 365.355469 452.585938 365.621094 453.316406 365.921875 C 454.046875 366.222656 454.761719 366.558594 455.460938 366.929688 C 456.160156 367.296875 456.839844 367.703125 457.5 368.140625 C 458.160156 368.578125 458.796875 369.046875 459.410156 369.546875 C 460.023438 370.046875 460.609375 370.574219 461.171875 371.132812 C 461.730469 371.691406 462.265625 372.273438 462.769531 372.882812 C 463.273438 373.496094 463.746094 374.128906 464.1875 374.785156 C 464.628906 375.441406 465.039062 376.117188 465.414062 376.8125 C 465.789062 377.511719 466.128906 378.222656 466.433594 378.953125 C 466.738281 379.683594 467.007812 380.425781 467.238281 381.183594 C 467.472656 381.941406 467.664062 382.707031 467.820312 383.480469 C 467.980469 384.257812 468.097656 385.039062 468.175781 385.824219 C 468.257812 386.613281 468.296875 387.402344 468.300781 388.195312 C 468.296875 388.980469 468.253906 389.769531 468.171875 390.554688 C 468.09375 391.335938 467.972656 392.117188 467.816406 392.890625 C 467.660156 393.664062 467.46875 394.425781 467.238281 395.179688 C 467.007812 395.933594 466.738281 396.675781 466.4375 397.402344 C 466.136719 398.132812 465.796875 398.84375 465.425781 399.539062 C 465.054688 400.234375 464.648438 400.910156 464.210938 401.566406 C 463.777344 402.222656 463.308594 402.855469 462.808594 403.46875 C 462.308594 404.078125 461.78125 404.664062 461.226562 405.222656 C 460.671875 405.785156 460.089844 406.316406 459.484375 406.816406 C 458.875 407.320312 458.246094 407.792969 457.59375 408.234375 C 456.9375 408.679688 456.265625 409.085938 455.574219 409.464844 C 454.878906 409.839844 454.171875 410.183594 453.445312 410.492188 C 452.71875 410.796875 451.980469 411.070312 451.226562 411.304688 C 450.472656 411.542969 449.710938 411.742188 448.941406 411.902344 C 448.167969 412.066406 447.390625 412.1875 446.605469 412.277344 C 445.824219 412.363281 445.035156 412.410156 444.246094 412.421875 Z M 492.828125 460.875 C 492.039062 460.878906 491.25 460.847656 490.460938 460.773438 C 489.675781 460.703125 488.890625 460.589844 488.113281 460.441406 C 487.339844 460.292969 486.570312 460.105469 485.8125 459.878906 C 485.054688 459.65625 484.308594 459.394531 483.574219 459.097656 C 482.84375 458.800781 482.125 458.464844 481.425781 458.097656 C 480.726562 457.730469 480.042969 457.328125 479.382812 456.894531 C 478.722656 456.457031 478.085938 455.992188 477.472656 455.492188 C 476.855469 454.996094 476.265625 454.46875 475.703125 453.914062 C 475.140625 453.359375 474.605469 452.777344 474.101562 452.167969 C 473.59375 451.558594 473.121094 450.929688 472.675781 450.273438 C 472.230469 449.617188 471.820312 448.941406 471.445312 448.25 C 471.066406 447.554688 470.722656 446.839844 470.414062 446.113281 C 470.109375 445.382812 469.835938 444.640625 469.601562 443.886719 C 469.367188 443.128906 469.171875 442.363281 469.011719 441.589844 C 468.851562 440.816406 468.730469 440.035156 468.648438 439.246094 C 468.566406 438.460938 468.519531 437.671875 468.515625 436.882812 C 468.511719 436.089844 468.542969 435.300781 468.617188 434.511719 C 468.6875 433.726562 468.800781 432.941406 468.949219 432.164062 C 469.097656 431.390625 469.285156 430.621094 469.507812 429.863281 C 469.734375 429.105469 469.996094 428.359375 470.292969 427.625 C 470.589844 426.894531 470.925781 426.175781 471.292969 425.476562 C 471.660156 424.777344 472.0625 424.097656 472.496094 423.433594 C 472.933594 422.773438 473.398438 422.136719 473.898438 421.523438 C 474.394531 420.90625 474.921875 420.316406 475.476562 419.753906 C 476.03125 419.191406 476.613281 418.65625 477.222656 418.152344 C 477.832031 417.644531 478.460938 417.171875 479.117188 416.726562 C 479.773438 416.28125 480.445312 415.871094 481.140625 415.496094 C 481.835938 415.117188 482.550781 414.773438 483.277344 414.46875 C 484.007812 414.160156 484.75 413.886719 485.503906 413.652344 C 486.261719 413.417969 487.023438 413.222656 487.800781 413.0625 C 488.574219 412.902344 489.355469 412.78125 490.140625 412.699219 C 490.929688 412.617188 491.71875 412.574219 492.507812 412.566406 C 493.300781 412.5625 494.089844 412.59375 494.878906 412.667969 C 495.664062 412.738281 496.449219 412.851562 497.222656 413 C 498 413.148438 498.769531 413.335938 499.527344 413.5625 C 500.285156 413.785156 501.03125 414.046875 501.765625 414.34375 C 502.496094 414.640625 503.214844 414.976562 503.914062 415.34375 C 504.613281 415.710938 505.292969 416.113281 505.957031 416.546875 C 506.617188 416.984375 507.253906 417.449219 507.867188 417.949219 C 508.484375 418.445312 509.070312 418.972656 509.636719 419.527344 C 510.199219 420.082031 510.734375 420.664062 511.238281 421.273438 C 511.746094 421.882812 512.21875 422.511719 512.664062 423.167969 C 513.105469 423.824219 513.519531 424.5 513.894531 425.191406 C 514.273438 425.886719 514.617188 426.601562 514.921875 427.328125 C 515.230469 428.058594 515.5 428.800781 515.738281 429.554688 C 515.972656 430.3125 516.167969 431.078125 516.328125 431.851562 C 516.488281 432.625 516.609375 433.40625 516.691406 434.195312 C 516.773438 434.980469 516.816406 435.769531 516.824219 436.558594 C 516.828125 437.351562 516.792969 438.140625 516.722656 438.929688 C 516.648438 439.714844 516.539062 440.5 516.390625 441.277344 C 516.242188 442.050781 516.054688 442.820312 515.828125 443.578125 C 515.605469 444.335938 515.34375 445.082031 515.046875 445.816406 C 514.75 446.546875 514.414062 447.265625 514.046875 447.964844 C 513.679688 448.664062 513.277344 449.34375 512.839844 450.007812 C 512.40625 450.667969 511.941406 451.304688 511.441406 451.917969 C 510.945312 452.535156 510.417969 453.125 509.863281 453.6875 C 509.304688 454.25 508.722656 454.785156 508.117188 455.289062 C 507.507812 455.796875 506.875 456.269531 506.222656 456.714844 C 505.566406 457.160156 504.890625 457.570312 504.195312 457.945312 C 503.5 458.324219 502.789062 458.667969 502.0625 458.972656 C 501.332031 459.28125 500.589844 459.554688 499.835938 459.789062 C 499.078125 460.023438 498.3125 460.21875 497.539062 460.378906 C 496.765625 460.539062 495.984375 460.660156 495.195312 460.742188 C 494.410156 460.824219 493.621094 460.867188 492.828125 460.875 Z M 540.898438 412.421875 C 540.109375 412.414062 539.324219 412.367188 538.539062 412.285156 C 537.753906 412.203125 536.976562 412.078125 536.203125 411.917969 C 535.433594 411.761719 534.671875 411.5625 533.917969 411.328125 C 533.164062 411.09375 532.425781 410.824219 531.699219 410.515625 C 530.972656 410.207031 530.261719 409.867188 529.570312 409.492188 C 528.875 409.113281 528.203125 408.703125 527.550781 408.261719 C 526.898438 407.820312 526.269531 407.347656 525.660156 406.84375 C 525.054688 406.339844 524.476562 405.804688 523.921875 405.246094 C 523.367188 404.683594 522.839844 404.097656 522.34375 403.484375 C 521.847656 402.871094 521.382812 402.238281 520.945312 401.578125 C 520.511719 400.921875 520.109375 400.242188 519.742188 399.546875 C 519.375 398.847656 519.039062 398.136719 518.742188 397.40625 C 518.445312 396.675781 518.183594 395.933594 517.957031 395.175781 C 517.730469 394.421875 517.542969 393.65625 517.390625 392.882812 C 517.242188 392.109375 517.128906 391.328125 517.054688 390.542969 C 516.980469 389.757812 516.945312 388.972656 516.949219 388.183594 C 516.949219 387.394531 516.992188 386.605469 517.070312 385.824219 C 517.152344 385.039062 517.269531 384.257812 517.425781 383.484375 C 517.582031 382.714844 517.773438 381.949219 518.007812 381.195312 C 518.238281 380.441406 518.503906 379.699219 518.808594 378.972656 C 519.109375 378.246094 519.449219 377.535156 519.824219 376.839844 C 520.195312 376.144531 520.601562 375.46875 521.042969 374.8125 C 521.480469 374.160156 521.949219 373.527344 522.453125 372.917969 C 522.953125 372.308594 523.484375 371.726562 524.042969 371.167969 C 524.597656 370.613281 525.183594 370.082031 525.792969 369.585938 C 526.402344 369.085938 527.035156 368.617188 527.691406 368.179688 C 528.347656 367.738281 529.023438 367.335938 529.71875 366.964844 C 530.414062 366.59375 531.128906 366.253906 531.855469 365.953125 C 532.585938 365.652344 533.328125 365.386719 534.082031 365.15625 C 534.835938 364.925781 535.597656 364.734375 536.371094 364.582031 C 537.144531 364.425781 537.925781 364.3125 538.710938 364.234375 C 539.496094 364.15625 540.28125 364.113281 541.070312 364.113281 C 541.859375 364.113281 542.644531 364.152344 543.429688 364.226562 C 544.214844 364.304688 544.996094 364.417969 545.769531 364.570312 C 546.542969 364.722656 547.304688 364.910156 548.0625 365.140625 C 548.816406 365.367188 549.558594 365.628906 550.289062 365.929688 C 551.019531 366.230469 551.730469 366.566406 552.425781 366.933594 C 553.125 367.304688 553.800781 367.707031 554.457031 368.144531 C 555.113281 368.578125 555.75 369.046875 556.359375 369.542969 C 556.972656 370.042969 557.558594 370.570312 558.117188 371.125 C 558.675781 371.679688 559.207031 372.261719 559.710938 372.871094 C 560.214844 373.476562 560.683594 374.109375 561.125 374.761719 C 561.566406 375.417969 561.976562 376.089844 562.351562 376.785156 C 562.726562 377.476562 563.066406 378.1875 563.371094 378.914062 C 563.675781 379.640625 563.945312 380.382812 564.175781 381.136719 C 564.410156 381.890625 564.605469 382.652344 564.765625 383.425781 C 564.921875 384.199219 565.042969 384.976562 565.125 385.761719 C 565.207031 386.546875 565.25 387.332031 565.253906 388.121094 C 565.261719 388.917969 565.226562 389.714844 565.152344 390.511719 C 565.078125 391.304688 564.96875 392.09375 564.816406 392.878906 C 564.664062 393.660156 564.472656 394.4375 564.246094 395.199219 C 564.015625 395.964844 563.75 396.71875 563.449219 397.457031 C 563.144531 398.195312 562.804688 398.914062 562.429688 399.621094 C 562.058594 400.324219 561.648438 401.007812 561.207031 401.675781 C 560.761719 402.339844 560.289062 402.980469 559.78125 403.597656 C 559.277344 404.214844 558.742188 404.804688 558.175781 405.367188 C 557.609375 405.933594 557.019531 406.464844 556.402344 406.972656 C 555.785156 407.476562 555.140625 407.949219 554.476562 408.390625 C 553.8125 408.832031 553.125 409.242188 552.421875 409.613281 C 551.714844 409.988281 550.992188 410.328125 550.253906 410.628906 C 549.515625 410.929688 548.765625 411.195312 548 411.421875 C 547.234375 411.648438 546.460938 411.839844 545.675781 411.988281 C 544.890625 412.140625 544.101562 412.25 543.308594 412.324219 C 542.511719 412.394531 541.714844 412.425781 540.917969 412.421875 Z M 540.898438 412.421875 " fill-opacity="1" fill-rule="nonzero"/></svg>