<svg xmlns="http://www.w3.org/2000/svg" xmlns:xlink="http://www.w3.org/1999/xlink" width="1024" zoomAndPan="magnify" viewBox="0 0 768 767.999994" height="1024" preserveAspectRatio="xMidYMid meet" version="1.0"><defs><clipPath id="d32d4ab5fc"><path d="M 247.371094 107.285156 L 520.371094 107.285156 L 520.371094 660.785156 L 247.371094 660.785156 Z M 247.371094 107.285156 " clip-rule="nonzero"/></clipPath><clipPath id="15a55901fd"><path d="M 0.617188 108 L 273.371094 108 L 273.371094 553.785156 L 0.617188 553.785156 Z M 0.617188 108 " clip-rule="nonzero"/></clipPath><clipPath id="8fd7f3179b"><path d="M 82 0.285156 L 182 0.285156 L 182 101 L 82 101 Z M 82 0.285156 " clip-rule="nonzero"/></clipPath><clipPath id="884f62699b"><rect x="0" width="274" y="0" height="554"/></clipPath></defs><g clip-path="url(#d32d4ab5fc)"><g transform="matrix(1, 0, 0, 1, 247, 107)"><g clip-path="url(#884f62699b)"><g clip-path="url(#15a55901fd)"><path fill="#ffffff" d="M 90.683594 532.253906 L 109.78125 433.578125 C 111.207031 426.21875 114.160156 420.5 118.878906 414.855469 L 186.859375 333.519531 C 219.636719 294.308594 196.210938 249.386719 199.9375 202.058594 C 207.207031 206.796875 215.402344 212.980469 219.320312 219.964844 L 229.558594 293.335938 C 231.40625 306.574219 239.722656 314.386719 252.90625 313.96875 C 262.304688 313.667969 275.003906 304.898438 273.527344 292.285156 L 263.445312 206.089844 C 262.484375 197.890625 259.234375 191.011719 253.671875 185.503906 L 193.503906 125.992188 C 180.96875 113.59375 166.042969 106.058594 148.160156 108.765625 C 131.070312 111.355469 116.703125 118.636719 108.1875 134.234375 C 94.144531 159.960938 88 190.449219 71.488281 215.167969 C 55.753906 236.992188 -18.496094 257.871094 4.933594 289.734375 C 11.886719 299.195312 24.40625 301.117188 35.089844 294.445312 L 106.210938 250.042969 C 108.503906 269.726562 113.003906 290.589844 112.03125 311.066406 C 100.742188 338.15625 60.289062 384.726562 55.179688 413.699219 L 36.429688 520.035156 C 33.710938 535.441406 42.925781 548.683594 55.507812 552.410156 C 69.976562 556.695312 87.34375 549.542969 90.691406 532.25 Z M 90.683594 532.253906 " fill-opacity="1" fill-rule="nonzero"/></g><path fill="#ffffff" d="M 219.058594 539.128906 C 227.285156 553.652344 244.21875 554.054688 254.839844 548.445312 C 268.117188 541.4375 273.515625 526.253906 266.902344 512.207031 C 250.960938 478.34375 228.789062 448 215.277344 412.671875 C 205.902344 388.164062 209.855469 361.890625 201.488281 334.054688 L 154.089844 393.78125 C 148.648438 411.203125 159.800781 434.496094 168.734375 450.269531 Z M 219.058594 539.128906 " fill-opacity="1" fill-rule="nonzero"/><g clip-path="url(#8fd7f3179b)"><path fill="#ffffff" d="M 82.015625 50.316406 C 82.015625 51.953125 82.097656 53.585938 82.257812 55.210938 C 82.417969 56.839844 82.65625 58.457031 82.976562 60.058594 C 83.296875 61.664062 83.695312 63.25 84.167969 64.816406 C 84.644531 66.378906 85.195312 67.917969 85.820312 69.429688 C 86.445312 70.941406 87.144531 72.417969 87.917969 73.859375 C 88.6875 75.304688 89.527344 76.703125 90.4375 78.066406 C 91.347656 79.425781 92.320312 80.738281 93.359375 82 C 94.394531 83.265625 95.492188 84.476562 96.652344 85.632812 C 97.808594 86.789062 99.019531 87.886719 100.285156 88.925781 C 101.546875 89.960938 102.859375 90.9375 104.222656 91.84375 C 105.582031 92.753906 106.984375 93.59375 108.425781 94.363281 C 109.871094 95.136719 111.347656 95.832031 112.859375 96.460938 C 114.371094 97.085938 115.910156 97.636719 117.476562 98.109375 C 119.042969 98.585938 120.628906 98.984375 122.230469 99.300781 C 123.835938 99.621094 125.453125 99.859375 127.082031 100.019531 C 128.710938 100.179688 130.34375 100.261719 131.980469 100.261719 C 133.617188 100.261719 135.25 100.179688 136.875 100.019531 C 138.503906 99.859375 140.121094 99.621094 141.726562 99.300781 C 143.332031 98.984375 144.917969 98.585938 146.484375 98.109375 C 148.046875 97.636719 149.585938 97.085938 151.097656 96.460938 C 152.609375 95.832031 154.089844 95.136719 155.53125 94.363281 C 156.972656 93.59375 158.375 92.753906 159.738281 91.84375 C 161.097656 90.9375 162.410156 89.960938 163.675781 88.925781 C 164.941406 87.886719 166.152344 86.789062 167.308594 85.632812 C 168.464844 84.476562 169.5625 83.265625 170.601562 82 C 171.640625 80.738281 172.613281 79.425781 173.519531 78.066406 C 174.429688 76.703125 175.269531 75.304688 176.042969 73.859375 C 176.8125 72.417969 177.511719 70.941406 178.136719 69.429688 C 178.765625 67.917969 179.316406 66.378906 179.789062 64.816406 C 180.265625 63.25 180.664062 61.664062 180.980469 60.058594 C 181.300781 58.457031 181.539062 56.839844 181.699219 55.210938 C 181.863281 53.585938 181.941406 51.953125 181.941406 50.316406 C 181.941406 48.679688 181.863281 47.050781 181.699219 45.421875 C 181.539062 43.792969 181.300781 42.175781 180.980469 40.574219 C 180.664062 38.96875 180.265625 37.382812 179.789062 35.816406 C 179.316406 34.253906 178.765625 32.714844 178.136719 31.203125 C 177.511719 29.691406 176.8125 28.214844 176.042969 26.773438 C 175.269531 25.328125 174.429688 23.929688 173.523438 22.570312 C 172.613281 21.207031 171.640625 19.894531 170.601562 18.632812 C 169.5625 17.367188 168.464844 16.15625 167.308594 15 C 166.152344 13.84375 164.941406 12.746094 163.675781 11.707031 C 162.410156 10.671875 161.097656 9.699219 159.738281 8.789062 C 158.375 7.878906 156.972656 7.039062 155.53125 6.269531 C 154.089844 5.496094 152.609375 4.800781 151.097656 4.171875 C 149.585938 3.546875 148.046875 2.996094 146.484375 2.523438 C 144.917969 2.046875 143.332031 1.648438 141.726562 1.332031 C 140.121094 1.011719 138.503906 0.773438 136.875 0.613281 C 135.25 0.453125 133.617188 0.371094 131.980469 0.371094 C 130.34375 0.371094 128.710938 0.453125 127.082031 0.613281 C 125.453125 0.773438 123.835938 1.011719 122.230469 1.332031 C 120.628906 1.648438 119.042969 2.046875 117.476562 2.523438 C 115.910156 2.996094 114.371094 3.546875 112.859375 4.171875 C 111.347656 4.800781 109.871094 5.496094 108.425781 6.269531 C 106.984375 7.039062 105.582031 7.878906 104.222656 8.789062 C 102.859375 9.699219 101.546875 10.671875 100.285156 11.707031 C 99.019531 12.746094 97.808594 13.84375 96.652344 15 C 95.492188 16.15625 94.394531 17.367188 93.359375 18.632812 C 92.320312 19.894531 91.347656 21.207031 90.4375 22.570312 C 89.527344 23.929688 88.6875 25.328125 87.917969 26.773438 C 87.144531 28.214844 86.445312 29.691406 85.820312 31.203125 C 85.195312 32.714844 84.644531 34.253906 84.167969 35.816406 C 83.695312 37.382812 83.296875 38.96875 82.976562 40.574219 C 82.65625 42.175781 82.417969 43.792969 82.257812 45.421875 C 82.097656 47.050781 82.015625 48.679688 82.015625 50.316406 Z M 82.015625 50.316406 " fill-opacity="1" fill-rule="nonzero"/></g></g></g></g></svg>