<svg xmlns="http://www.w3.org/2000/svg" xmlns:xlink="http://www.w3.org/1999/xlink" width="1024" zoomAndPan="magnify" viewBox="0 0 768 767.999994" height="1024" preserveAspectRatio="xMidYMid meet" version="1.0"><defs><clipPath id="7a5abc35f0"><path d="M 247.371094 215 L 520.371094 215 L 520.371094 660.785156 L 247.371094 660.785156 Z M 247.371094 215 " clip-rule="nonzero"/></clipPath><clipPath id="467a12084d"><path d="M 339 107.285156 L 439 107.285156 L 439 208 L 339 208 Z M 339 107.285156 " clip-rule="nonzero"/></clipPath></defs><g clip-path="url(#7a5abc35f0)"><path fill="#ffffff" d="M 430.304688 639.253906 L 411.207031 540.578125 C 409.78125 533.21875 406.828125 527.5 402.109375 521.855469 L 334.128906 440.519531 C 301.351562 401.308594 324.777344 356.386719 321.050781 309.058594 C 313.78125 313.796875 305.589844 319.980469 301.667969 326.964844 L 291.429688 400.335938 C 289.582031 413.574219 281.265625 421.386719 268.082031 420.96875 C 258.683594 420.667969 245.984375 411.898438 247.460938 399.285156 L 257.542969 313.089844 C 258.503906 304.890625 261.753906 298.011719 267.316406 292.503906 L 327.484375 232.992188 C 340.019531 220.59375 354.945312 213.058594 372.828125 215.765625 C 389.917969 218.355469 404.285156 225.636719 412.800781 241.234375 C 426.84375 266.960938 432.988281 297.449219 449.5 322.167969 C 465.234375 343.992188 539.484375 364.871094 516.054688 396.734375 C 509.101562 406.195312 496.582031 408.117188 485.898438 401.445312 L 414.777344 357.039062 C 412.484375 376.726562 407.984375 397.589844 408.957031 418.066406 C 420.246094 445.15625 460.699219 491.726562 465.808594 520.699219 L 484.558594 627.035156 C 487.277344 642.441406 478.0625 655.683594 465.480469 659.410156 C 451.015625 663.695312 433.644531 656.542969 430.296875 639.25 Z M 430.304688 639.253906 " fill-opacity="1" fill-rule="nonzero"/></g><path fill="#ffffff" d="M 301.929688 646.128906 C 293.703125 660.652344 276.769531 661.054688 266.148438 655.445312 C 252.871094 648.4375 247.472656 633.253906 254.085938 619.207031 C 270.027344 585.34375 292.199219 555 305.710938 519.671875 C 315.085938 495.164062 311.132812 468.890625 319.5 441.054688 L 366.898438 500.78125 C 372.34375 518.203125 361.1875 541.496094 352.253906 557.269531 Z M 301.929688 646.128906 " fill-opacity="1" fill-rule="nonzero"/><g clip-path="url(#467a12084d)"><path fill="#ffffff" d="M 438.972656 157.316406 C 438.972656 158.953125 438.890625 160.585938 438.730469 162.210938 C 438.570312 163.839844 438.332031 165.457031 438.011719 167.058594 C 437.691406 168.664062 437.296875 170.25 436.820312 171.816406 C 436.34375 173.378906 435.792969 174.917969 435.167969 176.429688 C 434.542969 177.941406 433.84375 179.417969 433.070312 180.859375 C 432.300781 182.304688 431.460938 183.703125 430.550781 185.066406 C 429.640625 186.425781 428.667969 187.738281 427.628906 189 C 426.59375 190.265625 425.496094 191.476562 424.335938 192.632812 C 423.179688 193.789062 421.96875 194.886719 420.703125 195.925781 C 419.441406 196.960938 418.128906 197.9375 416.765625 198.84375 C 415.40625 199.753906 414.003906 200.59375 412.5625 201.363281 C 411.117188 202.136719 409.640625 202.832031 408.128906 203.460938 C 406.617188 204.085938 405.078125 204.636719 403.511719 205.109375 C 401.945312 205.585938 400.359375 205.984375 398.757812 206.300781 C 397.152344 206.621094 395.535156 206.859375 393.90625 207.019531 C 392.277344 207.179688 390.644531 207.261719 389.007812 207.261719 C 387.371094 207.261719 385.742188 207.179688 384.113281 207.019531 C 382.484375 206.859375 380.867188 206.621094 379.261719 206.300781 C 377.65625 205.984375 376.070312 205.585938 374.503906 205.109375 C 372.941406 204.636719 371.402344 204.085938 369.890625 203.460938 C 368.378906 202.832031 366.898438 202.136719 365.457031 201.363281 C 364.015625 200.59375 362.613281 199.753906 361.25 198.84375 C 359.890625 197.9375 358.578125 196.960938 357.3125 195.925781 C 356.046875 194.886719 354.835938 193.789062 353.679688 192.632812 C 352.523438 191.476562 351.425781 190.265625 350.386719 189 C 349.351562 187.738281 348.375 186.425781 347.46875 185.066406 C 346.558594 183.703125 345.71875 182.304688 344.945312 180.859375 C 344.175781 179.417969 343.476562 177.941406 342.851562 176.429688 C 342.222656 174.917969 341.671875 173.378906 341.199219 171.816406 C 340.722656 170.25 340.324219 168.664062 340.007812 167.058594 C 339.6875 165.457031 339.449219 163.839844 339.289062 162.210938 C 339.128906 160.585938 339.046875 158.953125 339.046875 157.316406 C 339.046875 155.679688 339.128906 154.046875 339.289062 152.421875 C 339.449219 150.792969 339.6875 149.175781 340.007812 147.574219 C 340.324219 145.96875 340.722656 144.382812 341.199219 142.816406 C 341.671875 141.253906 342.222656 139.714844 342.851562 138.203125 C 343.476562 136.691406 344.175781 135.214844 344.945312 133.773438 C 345.71875 132.328125 346.558594 130.929688 347.46875 129.566406 C 348.375 128.207031 349.351562 126.894531 350.386719 125.632812 C 351.425781 124.367188 352.523438 123.15625 353.679688 122 C 354.835938 120.84375 356.046875 119.746094 357.3125 118.707031 C 358.578125 117.671875 359.890625 116.695312 361.25 115.789062 C 362.613281 114.878906 364.015625 114.039062 365.457031 113.269531 C 366.898438 112.496094 368.378906 111.800781 369.890625 111.171875 C 371.402344 110.546875 372.941406 109.996094 374.503906 109.523438 C 376.070312 109.046875 377.65625 108.648438 379.261719 108.332031 C 380.867188 108.011719 382.484375 107.773438 384.113281 107.613281 C 385.742188 107.453125 387.371094 107.371094 389.007812 107.371094 C 390.644531 107.371094 392.277344 107.453125 393.90625 107.613281 C 395.535156 107.773438 397.152344 108.011719 398.757812 108.332031 C 400.359375 108.648438 401.945312 109.046875 403.511719 109.523438 C 405.078125 109.996094 406.617188 110.546875 408.128906 111.171875 C 409.640625 111.800781 411.117188 112.496094 412.5625 113.269531 C 414.003906 114.039062 415.40625 114.878906 416.765625 115.789062 C 418.128906 116.695312 419.441406 117.671875 420.703125 118.707031 C 421.96875 119.746094 423.179688 120.84375 424.335938 122 C 425.496094 123.15625 426.59375 124.367188 427.628906 125.632812 C 428.667969 126.894531 429.640625 128.207031 430.550781 129.566406 C 431.460938 130.929688 432.300781 132.328125 433.070312 133.773438 C 433.84375 135.214844 434.542969 136.691406 435.167969 138.203125 C 435.792969 139.714844 436.34375 141.253906 436.820312 142.816406 C 437.296875 144.382812 437.691406 145.96875 438.011719 147.574219 C 438.332031 149.175781 438.570312 150.792969 438.730469 152.421875 C 438.890625 154.046875 438.972656 155.679688 438.972656 157.316406 Z M 438.972656 157.316406 " fill-opacity="1" fill-rule="nonzero"/></g></svg>