<svg xmlns="http://www.w3.org/2000/svg" xmlns:xlink="http://www.w3.org/1999/xlink" width="1024" zoomAndPan="magnify" viewBox="0 0 768 767.999994" height="1024" preserveAspectRatio="xMidYMid meet" version="1.0"><defs><clipPath id="61c234d41a"><path d="M 96.128906 107.285156 L 672 107.285156 L 672 660.785156 L 96.128906 660.785156 Z M 96.128906 107.285156 " clip-rule="nonzero"/></clipPath></defs><g clip-path="url(#61c234d41a)"><path fill="#ffffff" d="M 650.738281 185.128906 L 650.738281 150.535156 C 650.746094 149.003906 650.589844 147.492188 650.265625 146 C 649.941406 144.503906 649.457031 143.0625 648.8125 141.675781 C 648.167969 140.289062 647.375 138.988281 646.445312 137.777344 C 645.511719 136.566406 644.453125 135.472656 643.277344 134.496094 C 642.125 133.535156 640.886719 132.707031 639.558594 132.007812 C 638.230469 131.3125 636.839844 130.765625 635.394531 130.367188 C 633.949219 129.96875 632.476562 129.726562 630.980469 129.644531 C 629.480469 129.558594 627.992188 129.636719 626.511719 129.871094 L 523.960938 144.332031 L 523.960938 126.519531 C 523.960938 125.890625 523.929688 125.265625 523.867188 124.640625 C 523.804688 124.015625 523.710938 123.394531 523.589844 122.78125 C 523.46875 122.164062 523.316406 121.554688 523.132812 120.957031 C 522.949219 120.355469 522.738281 119.765625 522.5 119.183594 C 522.257812 118.605469 521.992188 118.035156 521.695312 117.484375 C 521.398438 116.929688 521.078125 116.390625 520.730469 115.871094 C 520.382812 115.347656 520.007812 114.84375 519.609375 114.359375 C 519.210938 113.871094 518.789062 113.40625 518.347656 112.960938 C 517.902344 112.519531 517.441406 112.097656 516.953125 111.699219 C 516.46875 111.300781 515.964844 110.925781 515.445312 110.574219 C 514.921875 110.226562 514.386719 109.902344 513.832031 109.605469 C 513.277344 109.308594 512.710938 109.042969 512.132812 108.800781 C 511.554688 108.558594 510.964844 108.347656 510.363281 108.164062 C 509.761719 107.980469 509.152344 107.828125 508.539062 107.703125 C 507.921875 107.582031 507.304688 107.488281 506.679688 107.425781 C 506.054688 107.363281 505.425781 107.328125 504.800781 107.328125 L 471.734375 107.328125 C 471.105469 107.328125 470.480469 107.363281 469.855469 107.425781 C 469.230469 107.488281 468.609375 107.582031 467.996094 107.703125 C 467.378906 107.828125 466.769531 107.980469 466.171875 108.164062 C 465.570312 108.347656 464.980469 108.558594 464.398438 108.800781 C 463.820312 109.042969 463.253906 109.308594 462.699219 109.605469 C 462.148438 109.902344 461.609375 110.226562 461.089844 110.574219 C 460.566406 110.925781 460.0625 111.300781 459.578125 111.699219 C 459.09375 112.097656 458.628906 112.519531 458.1875 112.960938 C 457.742188 113.40625 457.320312 113.871094 456.921875 114.359375 C 456.527344 114.84375 456.152344 115.347656 455.804688 115.871094 C 455.457031 116.390625 455.132812 116.929688 454.835938 117.484375 C 454.542969 118.035156 454.273438 118.605469 454.035156 119.183594 C 453.792969 119.765625 453.582031 120.355469 453.398438 120.957031 C 453.21875 121.554688 453.066406 122.164062 452.941406 122.78125 C 452.820312 123.394531 452.726562 124.015625 452.667969 124.640625 C 452.605469 125.265625 452.574219 125.890625 452.574219 126.519531 L 452.574219 154.398438 L 448.9375 154.910156 C 447.714844 155.101562 446.523438 155.398438 445.355469 155.804688 C 444.1875 156.207031 443.066406 156.710938 441.988281 157.3125 C 440.910156 157.917969 439.894531 158.613281 438.941406 159.394531 C 437.988281 160.179688 437.109375 161.042969 436.308594 161.980469 C 435.507812 162.921875 434.796875 163.925781 434.171875 164.992188 C 433.550781 166.058594 433.027344 167.171875 432.601562 168.332031 C 432.179688 169.492188 431.859375 170.679688 431.644531 171.894531 C 431.433594 173.113281 431.328125 174.339844 431.335938 175.574219 L 431.335938 185.128906 C 429.824219 185.570312 428.363281 186.128906 426.941406 186.804688 C 425.523438 187.480469 424.167969 188.265625 422.878906 189.160156 C 421.585938 190.054688 420.371094 191.046875 419.238281 192.136719 C 418.109375 193.226562 417.070312 194.398438 416.125 195.65625 C 415.183594 196.910156 414.34375 198.234375 413.613281 199.628906 C 412.882812 201.019531 412.269531 202.460938 411.773438 203.949219 C 411.273438 205.441406 410.898438 206.960938 410.644531 208.511719 C 410.390625 210.0625 410.261719 211.625 410.257812 213.195312 L 410.257812 249.039062 C 406.042969 246.851562 401.628906 245.199219 397.015625 244.074219 C 392.402344 242.953125 387.722656 242.390625 382.976562 242.394531 L 247.875 242.394531 C 245.925781 242.398438 243.980469 242.496094 242.042969 242.6875 C 240.101562 242.878906 238.175781 243.167969 236.265625 243.550781 C 234.355469 243.933594 232.464844 244.40625 230.601562 244.972656 C 228.738281 245.539062 226.90625 246.199219 225.105469 246.945312 C 223.304688 247.691406 221.542969 248.523438 219.828125 249.445312 C 218.109375 250.363281 216.4375 251.363281 214.820312 252.449219 C 213.199219 253.53125 211.636719 254.691406 210.128906 255.925781 C 208.621094 257.164062 207.179688 258.472656 205.800781 259.847656 C 204.421875 261.226562 203.117188 262.671875 201.878906 264.175781 C 200.644531 265.683594 199.484375 267.246094 198.398438 268.867188 C 197.316406 270.488281 196.316406 272.15625 195.394531 273.875 C 194.476562 275.59375 193.644531 277.351562 192.898438 279.152344 C 192.148438 280.953125 191.492188 282.785156 190.925781 284.648438 C 190.359375 286.515625 189.882812 288.402344 189.503906 290.3125 C 189.121094 292.222656 188.832031 294.148438 188.640625 296.089844 C 188.449219 298.027344 188.351562 299.972656 188.347656 301.921875 L 188.347656 319.328125 L 137.84375 319.328125 C 136.476562 319.332031 135.117188 319.398438 133.757812 319.535156 C 132.398438 319.671875 131.050781 319.871094 129.714844 320.140625 C 128.375 320.40625 127.054688 320.738281 125.746094 321.136719 C 124.441406 321.53125 123.15625 321.992188 121.898438 322.515625 C 120.636719 323.039062 119.40625 323.621094 118.203125 324.265625 C 116.996094 324.910156 115.828125 325.613281 114.695312 326.371094 C 113.558594 327.128906 112.464844 327.941406 111.410156 328.808594 C 110.355469 329.671875 109.34375 330.589844 108.378906 331.554688 C 107.414062 332.519531 106.5 333.527344 105.632812 334.582031 C 104.765625 335.636719 103.953125 336.734375 103.195312 337.867188 C 102.4375 339.003906 101.734375 340.171875 101.09375 341.375 C 100.449219 342.578125 99.863281 343.808594 99.339844 345.070312 C 98.820312 346.332031 98.359375 347.613281 97.960938 348.921875 C 97.5625 350.226562 97.230469 351.546875 96.964844 352.886719 C 96.695312 354.226562 96.496094 355.574219 96.359375 356.929688 C 96.226562 358.289062 96.15625 359.652344 96.15625 361.015625 L 96.15625 619.097656 C 96.15625 620.460938 96.226562 621.824219 96.359375 623.183594 C 96.496094 624.539062 96.695312 625.890625 96.964844 627.226562 C 97.230469 628.566406 97.5625 629.886719 97.960938 631.195312 C 98.359375 632.5 98.820312 633.78125 99.339844 635.042969 C 99.863281 636.304688 100.449219 637.535156 101.09375 638.738281 C 101.734375 639.941406 102.4375 641.113281 103.195312 642.246094 C 103.953125 643.378906 104.765625 644.476562 105.632812 645.53125 C 106.5 646.585938 107.414062 647.59375 108.378906 648.558594 C 109.34375 649.527344 110.355469 650.441406 111.410156 651.308594 C 112.464844 652.171875 113.558594 652.984375 114.695312 653.742188 C 115.828125 654.503906 116.996094 655.203125 118.203125 655.847656 C 119.40625 656.492188 120.636719 657.074219 121.898438 657.597656 C 123.15625 658.121094 124.441406 658.582031 125.746094 658.976562 C 127.054688 659.375 128.375 659.707031 129.714844 659.976562 C 131.050781 660.242188 132.398438 660.445312 133.757812 660.578125 C 135.117188 660.714844 136.476562 660.78125 137.84375 660.785156 L 617.601562 660.785156 C 618.796875 660.78125 619.984375 660.722656 621.171875 660.605469 C 622.359375 660.488281 623.539062 660.3125 624.707031 660.078125 C 625.878906 659.84375 627.03125 659.554688 628.175781 659.207031 C 629.316406 658.859375 630.4375 658.457031 631.539062 658 C 632.640625 657.542969 633.71875 657.035156 634.769531 656.472656 C 635.820312 655.910156 636.84375 655.296875 637.835938 654.632812 C 638.828125 653.96875 639.78125 653.257812 640.707031 652.503906 C 641.628906 651.746094 642.511719 650.945312 643.355469 650.101562 C 644.195312 649.257812 644.996094 648.375 645.753906 647.453125 C 646.511719 646.53125 647.222656 645.574219 647.882812 644.585938 C 648.546875 643.59375 649.160156 642.570312 649.722656 641.519531 C 650.285156 640.46875 650.796875 639.390625 651.253906 638.289062 C 651.710938 637.1875 652.113281 636.066406 652.460938 634.925781 C 652.808594 633.785156 653.097656 632.628906 653.332031 631.457031 C 653.566406 630.289062 653.742188 629.109375 653.859375 627.921875 C 653.976562 626.738281 654.039062 625.546875 654.039062 624.355469 L 654.039062 515.507812 C 654.039062 496.355469 658.214844 481.628906 662.632812 466.03125 C 667.160156 450.066406 671.839844 433.546875 671.839844 412.148438 L 671.839844 213.195312 C 671.835938 211.625 671.707031 210.0625 671.453125 208.511719 C 671.199219 206.960938 670.824219 205.4375 670.324219 203.945312 C 669.824219 202.457031 669.207031 201.015625 668.476562 199.621094 C 667.746094 198.230469 666.90625 196.90625 665.960938 195.648438 C 665.015625 194.390625 663.976562 193.21875 662.84375 192.128906 C 661.710938 191.039062 660.496094 190.046875 659.203125 189.15625 C 657.910156 188.261719 656.550781 187.476562 655.132812 186.800781 C 653.710938 186.125 652.246094 185.570312 650.738281 185.128906 Z M 468.890625 126.519531 C 468.894531 126.140625 468.96875 125.78125 469.113281 125.429688 C 469.257812 125.082031 469.464844 124.773438 469.730469 124.503906 C 469.992188 124.238281 470.300781 124.027344 470.648438 123.878906 C 470.992188 123.730469 471.355469 123.652344 471.734375 123.644531 L 504.796875 123.644531 C 505.175781 123.652344 505.539062 123.730469 505.882812 123.878906 C 506.230469 124.027344 506.539062 124.238281 506.804688 124.503906 C 507.066406 124.773438 507.273438 125.082031 507.417969 125.429688 C 507.5625 125.78125 507.636719 126.140625 507.640625 126.519531 L 507.640625 146.632812 L 468.890625 152.097656 Z M 447.652344 175.574219 C 447.628906 175.042969 447.699219 174.527344 447.863281 174.023438 C 448.023438 173.523438 448.269531 173.0625 448.601562 172.648438 C 448.929688 172.234375 449.320312 171.890625 449.773438 171.617188 C 450.230469 171.347656 450.714844 171.164062 451.234375 171.066406 L 461.476562 169.625 C 461.746094 169.597656 462.011719 169.558594 462.273438 169.507812 L 516.515625 161.855469 C 516.832031 161.832031 517.144531 161.785156 517.457031 161.722656 L 628.746094 146.027344 C 629.457031 145.867188 630.167969 145.871094 630.875 146.039062 C 631.585938 146.207031 632.21875 146.523438 632.78125 146.984375 C 633.324219 147.410156 633.738281 147.9375 634.023438 148.5625 C 634.3125 149.1875 634.441406 149.84375 634.414062 150.53125 L 634.414062 183.964844 L 447.652344 183.964844 Z M 204.667969 301.921875 C 204.667969 300.507812 204.742188 299.097656 204.878906 297.6875 C 205.019531 296.28125 205.230469 294.882812 205.507812 293.496094 C 205.78125 292.109375 206.128906 290.738281 206.539062 289.386719 C 206.949219 288.03125 207.425781 286.703125 207.96875 285.394531 C 208.511719 284.089844 209.117188 282.8125 209.785156 281.5625 C 210.449219 280.316406 211.179688 279.105469 211.964844 277.929688 C 212.75 276.753906 213.59375 275.617188 214.488281 274.523438 C 215.386719 273.429688 216.335938 272.382812 217.335938 271.382812 C 218.335938 270.382812 219.382812 269.433594 220.476562 268.539062 C 221.570312 267.640625 222.703125 266.796875 223.882812 266.011719 C 225.058594 265.226562 226.269531 264.5 227.515625 263.832031 C 228.761719 263.164062 230.039062 262.558594 231.347656 262.015625 C 232.652344 261.476562 233.984375 260.996094 235.335938 260.585938 C 236.691406 260.175781 238.0625 259.832031 239.449219 259.554688 C 240.835938 259.277344 242.234375 259.066406 243.640625 258.925781 C 245.046875 258.789062 246.460938 258.714844 247.875 258.714844 L 382.976562 258.714844 C 384.390625 258.714844 385.800781 258.785156 387.210938 258.925781 C 388.617188 259.066406 390.015625 259.273438 391.402344 259.550781 C 392.792969 259.828125 394.164062 260.171875 395.515625 260.582031 C 396.871094 260.996094 398.199219 261.472656 399.507812 262.011719 C 400.816406 262.554688 402.09375 263.160156 403.339844 263.828125 C 404.589844 264.492188 405.800781 265.222656 406.976562 266.007812 C 408.152344 266.792969 409.289062 267.636719 410.382812 268.53125 C 411.476562 269.429688 412.523438 270.378906 413.527344 271.378906 C 414.527344 272.378906 415.476562 273.425781 416.375 274.519531 C 417.273438 275.613281 418.117188 276.746094 418.902344 277.925781 C 419.6875 279.101562 420.417969 280.3125 421.085938 281.558594 C 421.753906 282.808594 422.359375 284.085938 422.902344 285.390625 C 423.445312 286.699219 423.921875 288.027344 424.332031 289.382812 C 424.746094 290.734375 425.089844 292.105469 425.367188 293.492188 C 425.644531 294.882812 425.855469 296.277344 425.996094 297.6875 C 426.136719 299.09375 426.207031 300.507812 426.210938 301.921875 L 426.210938 319.328125 L 397.839844 319.328125 L 397.839844 301.921875 C 397.839844 300.945312 397.742188 299.980469 397.550781 299.023438 C 397.359375 298.066406 397.078125 297.136719 396.703125 296.234375 C 396.332031 295.335938 395.871094 294.480469 395.328125 293.667969 C 394.789062 292.855469 394.171875 292.105469 393.480469 291.414062 C 392.792969 290.726562 392.039062 290.109375 391.230469 289.566406 C 390.417969 289.023438 389.5625 288.566406 388.660156 288.195312 C 387.761719 287.820312 386.832031 287.535156 385.875 287.347656 C 384.917969 287.15625 383.949219 287.058594 382.976562 287.058594 L 247.875 287.058594 C 246.898438 287.058594 245.933594 287.15625 244.976562 287.347656 C 244.019531 287.535156 243.089844 287.820312 242.1875 288.195312 C 241.285156 288.566406 240.429688 289.023438 239.621094 289.566406 C 238.808594 290.109375 238.058594 290.726562 237.367188 291.414062 C 236.675781 292.105469 236.0625 292.855469 235.519531 293.667969 C 234.976562 294.480469 234.519531 295.335938 234.144531 296.234375 C 233.769531 297.136719 233.488281 298.066406 233.296875 299.023438 C 233.105469 299.980469 233.007812 300.945312 233.007812 301.921875 L 233.007812 319.328125 L 204.667969 319.328125 Z M 381.523438 303.375 L 381.523438 319.328125 L 249.328125 319.328125 L 249.328125 303.375 Z M 112.46875 619.097656 L 112.46875 361.015625 C 112.472656 360.183594 112.511719 359.355469 112.59375 358.53125 C 112.675781 357.703125 112.800781 356.882812 112.960938 356.070312 C 113.125 355.253906 113.328125 354.449219 113.570312 353.65625 C 113.8125 352.859375 114.089844 352.078125 114.410156 351.3125 C 114.726562 350.542969 115.082031 349.792969 115.476562 349.0625 C 115.867188 348.328125 116.292969 347.617188 116.753906 346.929688 C 117.21875 346.238281 117.710938 345.570312 118.238281 344.929688 C 118.765625 344.285156 119.324219 343.671875 119.910156 343.085938 C 120.496094 342.496094 121.113281 341.941406 121.753906 341.414062 C 122.398438 340.886719 123.0625 340.390625 123.753906 339.929688 C 124.445312 339.46875 125.15625 339.042969 125.886719 338.648438 C 126.621094 338.257812 127.371094 337.902344 128.136719 337.585938 C 128.90625 337.265625 129.6875 336.988281 130.480469 336.746094 C 131.277344 336.503906 132.082031 336.300781 132.894531 336.140625 C 133.710938 335.976562 134.53125 335.855469 135.355469 335.773438 C 136.183594 335.691406 137.011719 335.648438 137.84375 335.648438 L 493.007812 335.648438 C 493.835938 335.648438 494.664062 335.691406 495.492188 335.773438 C 496.316406 335.855469 497.140625 335.976562 497.953125 336.140625 C 498.769531 336.300781 499.574219 336.503906 500.367188 336.746094 C 501.160156 336.988281 501.941406 337.269531 502.710938 337.585938 C 503.476562 337.90625 504.226562 338.257812 504.960938 338.652344 C 505.691406 339.042969 506.402344 339.46875 507.09375 339.933594 C 507.785156 340.394531 508.449219 340.886719 509.09375 341.414062 C 509.734375 341.941406 510.347656 342.5 510.9375 343.085938 C 511.523438 343.671875 512.082031 344.289062 512.609375 344.929688 C 513.132812 345.570312 513.628906 346.238281 514.089844 346.929688 C 514.550781 347.621094 514.980469 348.332031 515.371094 349.0625 C 515.761719 349.796875 516.117188 350.546875 516.4375 351.3125 C 516.753906 352.078125 517.035156 352.859375 517.277344 353.65625 C 517.519531 354.449219 517.71875 355.253906 517.882812 356.070312 C 518.046875 356.882812 518.167969 357.703125 518.25 358.53125 C 518.332031 359.355469 518.375 360.183594 518.375 361.015625 L 518.375 619.097656 C 518.375 619.929688 518.332031 620.757812 518.25 621.582031 C 518.167969 622.410156 518.046875 623.230469 517.882812 624.046875 C 517.71875 624.859375 517.519531 625.664062 517.277344 626.457031 C 517.035156 627.253906 516.753906 628.035156 516.4375 628.800781 C 516.117188 629.570312 515.761719 630.320312 515.371094 631.050781 C 514.980469 631.785156 514.550781 632.496094 514.089844 633.183594 C 513.628906 633.875 513.132812 634.542969 512.609375 635.183594 C 512.082031 635.824219 511.523438 636.441406 510.9375 637.027344 C 510.347656 637.613281 509.734375 638.171875 509.09375 638.699219 C 508.449219 639.226562 507.785156 639.71875 507.09375 640.183594 C 506.402344 640.644531 505.691406 641.070312 504.960938 641.460938 C 504.226562 641.855469 503.476562 642.210938 502.710938 642.527344 C 501.941406 642.847656 501.160156 643.125 500.367188 643.367188 C 499.574219 643.609375 498.769531 643.8125 497.953125 643.972656 C 497.140625 644.136719 496.316406 644.257812 495.492188 644.34375 C 494.664062 644.425781 493.835938 644.464844 493.007812 644.464844 L 137.84375 644.464844 C 137.011719 644.464844 136.183594 644.425781 135.355469 644.34375 C 134.53125 644.261719 133.710938 644.136719 132.894531 643.976562 C 132.082031 643.8125 131.277344 643.609375 130.480469 643.367188 C 129.6875 643.125 128.90625 642.847656 128.136719 642.527344 C 127.371094 642.210938 126.621094 641.855469 125.886719 641.464844 C 125.15625 641.070312 124.445312 640.644531 123.753906 640.183594 C 123.0625 639.722656 122.398438 639.226562 121.753906 638.699219 C 121.113281 638.171875 120.496094 637.617188 119.910156 637.027344 C 119.324219 636.441406 118.765625 635.828125 118.238281 635.183594 C 117.710938 634.542969 117.21875 633.875 116.753906 633.1875 C 116.292969 632.496094 115.867188 631.785156 115.476562 631.050781 C 115.082031 630.320312 114.726562 629.570312 114.410156 628.800781 C 114.089844 628.035156 113.8125 627.253906 113.570312 626.460938 C 113.328125 625.664062 113.125 624.859375 112.960938 624.046875 C 112.800781 623.230469 112.675781 622.410156 112.59375 621.582031 C 112.511719 620.757812 112.472656 619.929688 112.46875 619.097656 Z M 655.527344 412.148438 C 655.527344 431.277344 651.355469 445.996094 646.9375 461.582031 C 642.40625 477.5625 637.722656 494.089844 637.722656 515.507812 L 637.722656 624.355469 C 637.722656 625.011719 637.6875 625.667969 637.625 626.324219 C 637.558594 626.980469 637.460938 627.628906 637.332031 628.277344 C 637.203125 628.921875 637.042969 629.558594 636.851562 630.191406 C 636.660156 630.820312 636.4375 631.441406 636.1875 632.046875 C 635.933594 632.65625 635.652344 633.25 635.339844 633.832031 C 635.03125 634.414062 634.691406 634.976562 634.324219 635.523438 C 633.960938 636.070312 633.566406 636.601562 633.148438 637.109375 C 632.730469 637.617188 632.289062 638.105469 631.824219 638.570312 C 631.359375 639.039062 630.871094 639.480469 630.363281 639.898438 C 629.851562 640.316406 629.324219 640.707031 628.777344 641.074219 C 628.230469 641.4375 627.664062 641.777344 627.085938 642.089844 C 626.503906 642.398438 625.910156 642.679688 625.300781 642.933594 C 624.691406 643.183594 624.074219 643.40625 623.445312 643.597656 C 622.8125 643.789062 622.175781 643.949219 621.53125 644.078125 C 620.882812 644.207031 620.234375 644.304688 619.578125 644.371094 C 618.921875 644.4375 618.265625 644.46875 617.605469 644.46875 L 526.058594 644.46875 C 527.449219 642.664062 528.683594 640.757812 529.765625 638.75 C 530.84375 636.742188 531.75 634.660156 532.484375 632.503906 C 533.21875 630.34375 533.773438 628.140625 534.144531 625.894531 C 534.515625 623.644531 534.699219 621.378906 534.699219 619.101562 L 534.699219 361.015625 C 534.695312 359.652344 534.628906 358.289062 534.492188 356.929688 C 534.359375 355.574219 534.15625 354.226562 533.890625 352.886719 C 533.621094 351.546875 533.289062 350.226562 532.890625 348.921875 C 532.496094 347.613281 532.035156 346.332031 531.511719 345.070312 C 530.988281 343.808594 530.40625 342.578125 529.761719 341.375 C 529.117188 340.171875 528.414062 339.003906 527.65625 337.867188 C 526.898438 336.734375 526.085938 335.636719 525.21875 334.582031 C 524.355469 333.527344 523.4375 332.519531 522.472656 331.554688 C 521.507812 330.589844 520.5 329.671875 519.445312 328.808594 C 518.390625 327.941406 517.292969 327.128906 516.160156 326.371094 C 515.023438 325.609375 513.855469 324.910156 512.652344 324.265625 C 511.449219 323.621094 510.214844 323.039062 508.957031 322.515625 C 507.695312 321.992188 506.414062 321.53125 505.105469 321.136719 C 503.800781 320.738281 502.476562 320.40625 501.140625 320.140625 C 499.800781 319.871094 498.453125 319.671875 497.09375 319.535156 C 495.738281 319.398438 494.375 319.332031 493.011719 319.328125 L 442.53125 319.328125 L 442.53125 301.921875 C 442.535156 298.199219 442.1875 294.503906 441.496094 290.847656 C 440.800781 287.1875 439.769531 283.625 438.40625 280.160156 C 437.039062 276.695312 435.363281 273.386719 433.375 270.238281 C 431.386719 267.089844 429.121094 264.15625 426.578125 261.433594 L 426.578125 246.261719 L 655.527344 246.261719 Z M 655.527344 229.945312 L 426.578125 229.945312 L 426.578125 213.195312 C 426.578125 212.347656 426.664062 211.507812 426.828125 210.679688 C 426.996094 209.847656 427.242188 209.039062 427.566406 208.257812 C 427.890625 207.472656 428.289062 206.730469 428.761719 206.023438 C 429.230469 205.320312 429.765625 204.667969 430.367188 204.070312 C 430.964844 203.46875 431.617188 202.933594 432.324219 202.460938 C 433.027344 201.992188 433.769531 201.59375 434.554688 201.269531 C 435.335938 200.941406 436.144531 200.695312 436.976562 200.53125 C 437.804688 200.363281 438.644531 200.28125 439.492188 200.277344 L 642.578125 200.277344 C 643.425781 200.277344 644.265625 200.359375 645.101562 200.527344 C 645.933594 200.691406 646.742188 200.9375 647.527344 201.261719 C 648.3125 201.585938 649.054688 201.980469 649.761719 202.453125 C 650.46875 202.925781 651.125 203.460938 651.726562 204.058594 C 652.324219 204.660156 652.863281 205.3125 653.335938 206.015625 C 653.808594 206.722656 654.207031 207.464844 654.535156 208.25 C 654.859375 209.035156 655.109375 209.84375 655.273438 210.675781 C 655.441406 211.507812 655.527344 212.347656 655.527344 213.195312 Z M 476.589844 369.273438 L 154.261719 369.273438 C 153.726562 369.273438 153.195312 369.328125 152.667969 369.433594 C 152.144531 369.535156 151.632812 369.691406 151.136719 369.894531 C 150.644531 370.101562 150.171875 370.351562 149.726562 370.648438 C 149.28125 370.949219 148.871094 371.285156 148.492188 371.664062 C 148.113281 372.042969 147.773438 372.453125 147.476562 372.898438 C 147.179688 373.347656 146.929688 373.816406 146.722656 374.3125 C 146.519531 374.804688 146.363281 375.316406 146.257812 375.839844 C 146.15625 376.367188 146.101562 376.898438 146.101562 377.433594 L 146.101562 602.679688 C 146.101562 603.214844 146.15625 603.742188 146.257812 604.269531 C 146.363281 604.792969 146.519531 605.304688 146.722656 605.800781 C 146.929688 606.292969 147.179688 606.765625 147.476562 607.210938 C 147.773438 607.65625 148.113281 608.066406 148.492188 608.445312 C 148.871094 608.824219 149.28125 609.164062 149.726562 609.460938 C 150.171875 609.757812 150.644531 610.007812 151.136719 610.214844 C 151.632812 610.417969 152.144531 610.574219 152.667969 610.679688 C 153.195312 610.785156 153.726562 610.835938 154.261719 610.835938 L 476.589844 610.835938 C 477.125 610.835938 477.65625 610.785156 478.179688 610.679688 C 478.707031 610.574219 479.214844 610.417969 479.710938 610.214844 C 480.207031 610.007812 480.675781 609.757812 481.121094 609.460938 C 481.566406 609.164062 481.976562 608.824219 482.355469 608.445312 C 482.734375 608.066406 483.074219 607.65625 483.371094 607.210938 C 483.667969 606.765625 483.921875 606.292969 484.125 605.800781 C 484.328125 605.304688 484.484375 604.792969 484.589844 604.269531 C 484.695312 603.742188 484.746094 603.214844 484.746094 602.679688 L 484.746094 377.433594 C 484.746094 376.898438 484.695312 376.367188 484.589844 375.84375 C 484.484375 375.316406 484.332031 374.804688 484.125 374.3125 C 483.921875 373.816406 483.667969 373.347656 483.371094 372.902344 C 483.074219 372.457031 482.734375 372.042969 482.355469 371.664062 C 481.976562 371.285156 481.566406 370.949219 481.121094 370.648438 C 480.675781 370.351562 480.207031 370.101562 479.710938 369.894531 C 479.214844 369.691406 478.707031 369.535156 478.179688 369.433594 C 477.65625 369.328125 477.125 369.273438 476.589844 369.273438 Z M 468.429688 594.523438 L 162.417969 594.523438 L 162.417969 385.59375 L 468.429688 385.59375 Z M 277.105469 573.136719 C 288.277344 579.578125 300.027344 581.417969 311.027344 578.460938 C 312.53125 578.074219 314.003906 577.59375 315.441406 577.015625 C 316.867188 577.589844 318.324219 578.066406 319.8125 578.449219 C 323.253906 579.378906 326.757812 579.84375 330.324219 579.847656 C 341.429688 579.835938 352.734375 575.3125 363 566.585938 C 375.675781 555.816406 385.382812 539.726562 390.328125 521.289062 C 396.105469 499.730469 394.578125 479.6875 386.003906 464.855469 C 384.503906 462.191406 382.757812 459.707031 380.761719 457.398438 C 378.761719 455.089844 376.554688 453.003906 374.136719 451.140625 C 371.714844 449.273438 369.136719 447.671875 366.394531 446.328125 C 363.652344 444.984375 360.804688 443.925781 357.847656 443.15625 C 347.164062 440.265625 335.789062 441.921875 324.929688 447.910156 L 324.929688 447.308594 C 325.589844 444.496094 326.480469 441.757812 327.605469 439.097656 C 328.730469 436.4375 330.074219 433.886719 331.628906 431.457031 C 333.1875 429.023438 334.941406 426.738281 336.886719 424.601562 C 338.832031 422.464844 340.945312 420.507812 343.226562 418.734375 C 343.644531 418.402344 344.03125 418.035156 344.378906 417.625 C 344.726562 417.21875 345.035156 416.78125 345.296875 416.316406 C 345.558594 415.847656 345.773438 415.359375 345.941406 414.851562 C 346.105469 414.34375 346.222656 413.820312 346.285156 413.289062 C 346.351562 412.757812 346.363281 412.226562 346.320312 411.691406 C 346.28125 411.15625 346.1875 410.632812 346.042969 410.117188 C 345.898438 409.601562 345.703125 409.101562 345.460938 408.625 C 345.21875 408.148438 344.933594 407.699219 344.601562 407.277344 C 344.273438 406.855469 343.902344 406.46875 343.496094 406.121094 C 343.089844 405.773438 342.652344 405.46875 342.1875 405.203125 C 341.71875 404.941406 341.230469 404.726562 340.722656 404.5625 C 340.210938 404.394531 339.691406 404.277344 339.160156 404.214844 C 338.628906 404.152344 338.09375 404.140625 337.5625 404.179688 C 337.027344 404.222656 336.5 404.3125 335.984375 404.457031 C 335.46875 404.601562 334.972656 404.796875 334.496094 405.039062 C 334.015625 405.28125 333.566406 405.566406 333.148438 405.898438 C 326.992188 410.722656 321.820312 416.433594 317.636719 423.042969 C 315.6875 419.910156 313.40625 417.046875 310.796875 414.441406 C 309.300781 412.953125 307.714844 411.570312 306.039062 410.289062 C 304.367188 409.007812 302.613281 407.839844 300.785156 406.785156 C 298.957031 405.730469 297.070312 404.800781 295.121094 403.996094 C 293.171875 403.1875 291.179688 402.511719 289.140625 401.964844 C 287.105469 401.417969 285.039062 401.003906 282.949219 400.726562 C 280.859375 400.449219 278.757812 400.308594 276.648438 400.304688 C 274.539062 400.300781 272.4375 400.433594 270.34375 400.703125 C 268.253906 400.972656 266.1875 401.378906 264.148438 401.917969 C 263.453125 402.101562 262.792969 402.375 262.171875 402.734375 C 261.546875 403.09375 260.984375 403.527344 260.476562 404.035156 C 259.964844 404.542969 259.53125 405.109375 259.171875 405.730469 C 258.816406 406.355469 258.542969 407.011719 258.355469 407.707031 C 257.496094 410.964844 256.980469 414.273438 256.8125 417.636719 C 256.640625 421 256.816406 424.347656 257.339844 427.671875 C 257.863281 431 258.722656 434.238281 259.917969 437.386719 C 261.113281 440.535156 262.621094 443.527344 264.4375 446.359375 C 261.855469 447.65625 259.410156 449.175781 257.105469 450.921875 C 254.804688 452.667969 252.679688 454.613281 250.734375 456.75 C 248.789062 458.890625 247.058594 461.1875 245.539062 463.648438 C 244.019531 466.105469 242.738281 468.683594 241.695312 471.378906 C 235.960938 485.445312 235.574219 502.703125 240.550781 521.277344 C 246.644531 544.046875 260.300781 563.425781 277.105469 573.136719 Z M 273.222656 416.785156 C 274.285156 416.671875 275.347656 416.613281 276.410156 416.605469 C 277.476562 416.597656 278.539062 416.644531 279.601562 416.746094 C 280.664062 416.84375 281.714844 416.996094 282.761719 417.199219 C 283.808594 417.40625 284.839844 417.660156 285.859375 417.96875 C 286.882812 418.277344 287.882812 418.636719 288.867188 419.042969 C 289.851562 419.449219 290.8125 419.90625 291.753906 420.410156 C 292.691406 420.914062 293.601562 421.464844 294.488281 422.058594 C 295.371094 422.65625 296.222656 423.292969 297.042969 423.972656 C 297.863281 424.652344 298.648438 425.375 299.394531 426.132812 C 300.144531 426.890625 300.851562 427.683594 301.523438 428.515625 C 302.191406 429.34375 302.816406 430.203125 303.398438 431.097656 C 303.984375 431.988281 304.519531 432.90625 305.011719 433.851562 C 305.5 434.796875 305.945312 435.765625 306.339844 436.757812 C 306.734375 437.746094 307.078125 438.753906 307.371094 439.777344 C 307.664062 440.800781 307.90625 441.839844 308.097656 442.886719 C 308.289062 443.9375 308.425781 444.992188 308.507812 446.054688 C 308.507812 446.074219 308.507812 446.097656 308.507812 446.121094 C 308.320312 447.09375 308.15625 448.070312 308.011719 449.050781 L 307.980469 449.035156 C 307.644531 448.863281 307.292969 448.6875 306.957031 448.488281 C 303.117188 446.164062 299.023438 444.433594 294.679688 443.300781 C 290.335938 442.164062 285.921875 441.671875 281.433594 441.824219 C 279.910156 440.140625 278.574219 438.320312 277.433594 436.359375 C 276.292969 434.398438 275.367188 432.335938 274.660156 430.179688 C 273.953125 428.023438 273.476562 425.816406 273.234375 423.558594 C 272.992188 421.300781 272.988281 419.042969 273.222656 416.785156 Z M 256.804688 477.519531 C 260.617188 468.148438 267.398438 461.808594 276.429688 459.140625 C 276.695312 459.058594 276.964844 458.980469 277.234375 458.910156 L 277.246094 458.910156 C 279.25 458.367188 281.292969 458.097656 283.371094 458.105469 C 286.097656 458.175781 288.765625 458.59375 291.382812 459.359375 C 293.996094 460.128906 296.46875 461.214844 298.800781 462.625 C 301.316406 464.09375 303.976562 465.214844 306.789062 465.980469 C 309.597656 466.746094 312.457031 467.132812 315.367188 467.144531 L 315.464844 467.144531 C 315.78125 467.144531 316.09375 467.15625 316.410156 467.144531 C 319.164062 467.050781 321.867188 466.617188 324.515625 465.851562 C 327.164062 465.085938 329.679688 464.003906 332.0625 462.613281 C 337.1875 459.652344 345.078125 456.609375 353.621094 458.90625 C 355.535156 459.410156 357.382812 460.097656 359.164062 460.972656 C 360.941406 461.847656 362.613281 462.890625 364.183594 464.101562 C 365.75 465.3125 367.183594 466.667969 368.480469 468.167969 C 369.773438 469.667969 370.910156 471.28125 371.878906 473.007812 C 378.265625 484.066406 379.222656 499.714844 374.570312 517.058594 C 370.46875 532.335938 362.605469 545.503906 352.429688 554.148438 C 343.105469 562.074219 333.027344 565.101562 324.007812 562.679688 C 323.089844 562.445312 322.191406 562.144531 321.316406 561.78125 C 319.417969 561.003906 317.445312 560.617188 315.394531 560.625 C 313.34375 560.628906 311.371094 561.027344 309.476562 561.816406 C 308.617188 562.167969 307.734375 562.460938 306.832031 562.691406 C 298.277344 564.988281 290.386719 561.957031 285.261719 558.996094 C 272.128906 551.410156 261.316406 535.738281 256.316406 517.058594 C 252.261719 501.945312 252.429688 488.277344 256.804688 477.519531 Z M 256.804688 477.519531 " fill-opacity="1" fill-rule="nonzero"/></g></svg>