<svg xmlns="http://www.w3.org/2000/svg" xmlns:xlink="http://www.w3.org/1999/xlink" width="1024" zoomAndPan="magnify" viewBox="0 0 768 767.999994" height="1024" preserveAspectRatio="xMidYMid meet" version="1.0"><defs><clipPath id="326ac71748"><path d="M 133.300781 133.300781 L 635 133.300781 L 635 635 L 133.300781 635 Z M 133.300781 133.300781 " clip-rule="nonzero"/></clipPath><clipPath id="3646455ff5"><path d="M 133.300781 546 L 212 546 L 212 635 L 133.300781 635 Z M 133.300781 546 " clip-rule="nonzero"/></clipPath></defs><path fill="#ffffff" d="M 457.417969 444.691406 C 409.382812 444.691406 364.722656 418.734375 340.9375 376.949219 C 336.460938 369.097656 339.203125 359.109375 347.050781 354.632812 C 354.902344 350.160156 364.890625 352.898438 369.363281 360.746094 C 387.371094 392.347656 421.105469 411.953125 457.449219 411.953125 C 513.300781 411.953125 558.730469 366.527344 558.730469 310.675781 C 558.730469 254.824219 513.300781 209.394531 457.449219 209.394531 C 401.597656 209.394531 356.171875 254.824219 356.171875 310.675781 C 356.171875 319.695312 348.855469 327.042969 339.804688 327.042969 C 330.75 327.042969 323.433594 319.726562 323.433594 310.675781 C 323.433594 236.785156 383.5625 176.660156 457.449219 176.660156 C 531.339844 176.660156 591.464844 236.785156 591.464844 310.675781 C 591.464844 384.5625 531.339844 444.691406 457.449219 444.691406 Z M 457.417969 444.691406 " fill-opacity="1" fill-rule="nonzero"/><g clip-path="url(#326ac71748)"><path fill="#ffffff" d="M 386.199219 634.757812 C 379.585938 634.757812 372.9375 634.488281 366.257812 633.953125 C 326.507812 630.816406 287.492188 617.886719 253.386719 596.609375 C 245.707031 591.832031 243.402344 581.746094 248.175781 574.0625 C 252.953125 566.414062 263.074219 564.039062 270.722656 568.851562 C 300.386719 587.355469 334.324219 598.582031 368.863281 601.320312 C 466.035156 609.003906 556.660156 551.179688 592.03125 463.09375 C 550.980469 499.339844 496.566406 517.84375 440.847656 513.402344 C 342.542969 505.585938 262.507812 425.550781 254.691406 327.242188 C 250.25 271.460938 268.753906 217.113281 304.996094 176.058594 C 216.878906 211.46875 159.023438 301.890625 166.738281 399.226562 C 167.941406 414.59375 170.816406 429.859375 175.289062 444.625 C 177.894531 453.273438 172.984375 462.394531 164.335938 465 C 155.683594 467.570312 146.5625 462.695312 143.957031 454.042969 C 138.8125 437.039062 135.507812 419.4375 134.136719 401.765625 C 124.21875 276.769531 208.660156 161.59375 330.582031 133.9375 C 341.808594 131.398438 353.164062 136.84375 358.140625 147.230469 C 363.117188 157.621094 360.3125 169.914062 351.261719 177.09375 C 306.699219 212.535156 282.785156 267.71875 287.324219 324.671875 C 293.875 407.109375 360.980469 474.253906 443.453125 480.800781 C 500.40625 485.308594 555.589844 461.425781 591.03125 416.832031 C 598.210938 407.78125 610.539062 404.941406 620.925781 409.949219 C 631.316406 414.925781 636.761719 426.25 634.222656 437.507812 C 608.035156 552.917969 503.445312 634.757812 386.265625 634.757812 Z M 386.199219 634.757812 " fill-opacity="1" fill-rule="nonzero"/></g><path fill="#ffffff" d="M 493.425781 327.042969 L 457.417969 327.042969 C 448.398438 327.042969 441.050781 319.726562 441.050781 310.675781 L 441.050781 249.847656 C 441.050781 240.828125 448.363281 233.480469 457.417969 233.480469 C 466.46875 233.480469 473.785156 240.796875 473.785156 249.847656 L 473.785156 294.339844 L 493.460938 294.339844 C 502.476562 294.339844 509.828125 301.65625 509.828125 310.707031 C 509.828125 319.761719 502.511719 327.078125 493.460938 327.078125 Z M 493.425781 327.042969 " fill-opacity="1" fill-rule="nonzero"/><path fill="#ffffff" d="M 257.730469 534.914062 L 213.539062 534.914062 C 207.257812 534.914062 201.546875 531.304688 198.808594 525.660156 C 196.066406 520.015625 196.835938 513.269531 200.746094 508.355469 L 223.792969 479.363281 L 212.269531 479.363281 C 203.25 479.363281 195.902344 472.046875 195.902344 462.996094 C 195.902344 453.941406 203.214844 446.628906 212.269531 446.628906 L 257.730469 446.628906 C 264.011719 446.628906 269.722656 450.234375 272.460938 455.878906 C 275.199219 461.527344 274.433594 468.273438 270.523438 473.183594 L 247.476562 502.175781 L 257.730469 502.175781 C 266.75 502.175781 274.097656 509.492188 274.097656 518.546875 C 274.097656 527.597656 266.78125 534.914062 257.730469 534.914062 Z M 257.730469 534.914062 " fill-opacity="1" fill-rule="nonzero"/><g clip-path="url(#3646455ff5)"><path fill="#ffffff" d="M 195.132812 634.789062 L 150.941406 634.789062 C 144.660156 634.789062 138.949219 631.183594 136.207031 625.535156 C 133.46875 619.890625 134.238281 613.144531 138.144531 608.234375 L 161.195312 579.238281 L 149.671875 579.238281 C 140.652344 579.238281 133.300781 571.925781 133.300781 562.871094 C 133.300781 553.820312 140.617188 546.503906 149.671875 546.503906 L 195.132812 546.503906 C 201.414062 546.503906 207.125 550.113281 209.863281 555.757812 C 212.601562 561.402344 211.835938 568.148438 207.925781 573.058594 L 184.878906 602.054688 L 195.132812 602.054688 C 204.152344 602.054688 211.5 609.371094 211.5 618.421875 C 211.5 627.472656 204.183594 634.789062 195.132812 634.789062 Z M 195.132812 634.789062 " fill-opacity="1" fill-rule="nonzero"/></g></svg>