<svg xmlns="http://www.w3.org/2000/svg" xmlns:xlink="http://www.w3.org/1999/xlink" width="1024" zoomAndPan="magnify" viewBox="0 0 768 767.999994" height="1024" preserveAspectRatio="xMidYMid meet" version="1.0"><defs><clipPath id="317c6243cd"><path d="M 519 322 L 641.960938 322 L 641.960938 546 L 519 546 Z M 519 322 " clip-rule="nonzero"/></clipPath><clipPath id="b89cd5bad1"><path d="M 188 212.289062 L 634 212.289062 L 634 521 L 188 521 Z M 188 212.289062 " clip-rule="nonzero"/></clipPath></defs><g clip-path="url(#317c6243cd)"><path fill="#ffffff" d="M 638.691406 325.382812 C 645.695312 333.574219 640.335938 344.488281 636.777344 352.683594 C 628.421875 371.871094 616.082031 392.269531 605.679688 410.621094 C 581.855469 452.554688 556.121094 500.144531 529.871094 540.085938 C 528.441406 542.265625 527.230469 544.152344 525.964844 545.851562 L 519.253906 542.5625 C 528.929688 524.832031 539.113281 507.339844 549.460938 489.90625 C 572.234375 451.585938 595.761719 413.640625 616.511719 374.320312 C 621.765625 364.351562 630.253906 349.285156 633.488281 338.9375 C 634.945312 334.222656 634.648438 332.039062 631.144531 328.238281 L 633.921875 322.203125 C 635.78125 323.144531 637.691406 324.222656 638.691406 325.382812 Z M 638.691406 325.382812 " fill-opacity="1" fill-rule="nonzero"/></g><g clip-path="url(#b89cd5bad1)"><path fill="#ffffff" d="M 633.921875 322.203125 L 631.144531 328.238281 L 628.71875 335.21875 C 622.171875 346.347656 615.757812 357.695312 609.449219 369.148438 L 603.601562 365.886719 C 608.886719 356.453125 614.03125 346.96875 618.613281 337.671875 C 619.691406 335.488281 621.980469 331.878906 622.226562 329.695312 C 622.710938 325.8125 620.203125 320.988281 621.199219 316.707031 L 597.972656 355.78125 C 569.890625 405.472656 543.804688 456.328125 515.589844 505.914062 C 513 510.441406 510.574219 516.234375 507.261719 520.4375 L 500.953125 516.988281 L 616.511719 306.140625 C 615.8125 300.238281 599.046875 289.21875 593.632812 286.144531 C 552.832031 263.078125 478.210938 259.871094 433.933594 273.507812 C 429.945312 274.71875 423.855469 276.28125 421.265625 279.675781 C 418.410156 283.449219 415.527344 291.777344 412.941406 296.464844 C 379.792969 356.644531 346.914062 416.953125 314.089844 477.265625 L 308.191406 474.113281 L 413.828125 276.390625 C 413.828125 273.882812 395.988281 258.953125 392.753906 256.582031 C 362.574219 234.429688 317.515625 222.546875 280.296875 221.359375 C 273.828125 221.171875 260.921875 222.035156 256.207031 226.722656 C 235.644531 258.414062 215.324219 290.375 195.894531 322.847656 L 193.792969 321.582031 C 193.792969 321.582031 193.820312 321.367188 193.792969 321.285156 C 193.765625 321.207031 193.65625 321.097656 193.523438 321.042969 C 193.46875 320.988281 193.414062 320.9375 193.332031 320.910156 L 188.402344 318.050781 C 206.457031 286.578125 225.914062 255.046875 245.804688 227.773438 C 253.941406 216.617188 259.976562 213.839844 273.964844 212.980469 C 313.230469 210.609375 367.125 226.292969 399.089844 249.253906 C 407.199219 255.074219 413.992188 262.644531 421.753906 268.574219 C 432.71875 265.261719 443.851562 261.648438 455.167969 259.65625 C 500.363281 251.652344 577.410156 256.851562 613.386719 288.460938 C 615.757812 290.566406 625.109375 300.777344 625.917969 303.121094 C 626.886719 305.84375 627.371094 310.640625 628.34375 314.332031 C 628.800781 316.03125 628.179688 318.726562 629.042969 319.910156 C 629.230469 320.179688 631.550781 321.042969 633.972656 322.203125 Z M 602.875 290.539062 C 603.550781 290.1875 603.550781 289.835938 602.875 289.488281 Z M 602.875 290.539062 " fill-opacity="1" fill-rule="nonzero"/></g><path fill="#ffffff" d="M 603.601562 365.886719 L 609.449219 369.148438 C 587.863281 408.167969 567.113281 448.539062 544.613281 487.046875 C 536.148438 501.546875 527.445312 515.804688 518.335938 529.601562 C 513.027344 537.660156 511.0625 541 500.683594 539.277344 C 482.144531 536.203125 458.617188 525.9375 439.726562 520.652344 C 403.078125 510.414062 363.945312 501.953125 325.707031 500.144531 C 325.058594 500.09375 324.414062 500.066406 323.792969 500.066406 L 324.0625 493.8125 C 324.816406 493.8125 325.707031 493.652344 326.328125 493.679688 C 377.234375 495.671875 421.535156 507.042969 469.882812 521.921875 C 475.03125 523.511719 487.398438 528.578125 496.671875 531.027344 C 500.765625 532.105469 504.269531 532.671875 506.238281 532.1875 C 507.367188 531.917969 508.742188 530.652344 509.847656 530.03125 C 535.449219 484.433594 562.453125 439.566406 587.863281 393.859375 C 592.929688 384.722656 598.320312 375.347656 603.601562 365.886719 Z M 603.601562 365.886719 " fill-opacity="1" fill-rule="nonzero"/><path fill="#ffffff" d="M 602.875 289.488281 C 603.550781 289.835938 603.550781 290.1875 602.875 290.539062 Z M 602.875 289.488281 " fill-opacity="1" fill-rule="nonzero"/><path fill="#ffffff" d="M 587.191406 310.398438 C 600.421875 326.648438 583.066406 341.875 570.832031 351.710938 C 541.863281 375.023438 507.933594 396.796875 476.996094 417.628906 C 468.453125 423.367188 441.722656 444.121094 433.71875 446.058594 C 430.996094 446.707031 428.597656 446.300781 426.089844 446.8125 C 415.042969 449.105469 403.589844 452.390625 392.433594 452.90625 C 391.703125 452.769531 390.84375 448.890625 390.867188 448.082031 C 390.867188 445.980469 406.769531 421.160156 409.355469 417.519531 C 411.429688 414.664062 413.558594 412.050781 416.011719 409.542969 C 457.808594 382.191406 497.992188 352.222656 539.789062 324.84375 C 547.792969 319.589844 568.085938 305.332031 576.679688 305.117188 C 581.585938 304.980469 584.171875 306.707031 587.191406 310.398438 Z M 582.664062 327.941406 C 583.984375 324.195312 583.957031 321.042969 581.046875 318.105469 C 576.332031 313.363281 572.152344 314.414062 566.84375 317.351562 C 557.464844 322.554688 563.097656 323.710938 566.546875 328.914062 C 568.570312 331.957031 570.078125 336.1875 570.941406 339.746094 C 573.097656 341.390625 581.882812 330.234375 582.664062 327.941406 Z M 564.527344 345.675781 L 560.457031 340.796875 C 560.539062 341.792969 560.054688 342.65625 559.324219 343.304688 C 554.257812 347.992188 545.742188 353.222656 539.816406 357.371094 C 505.804688 381.140625 470.449219 403.074219 436.277344 426.628906 C 433.070312 429.753906 435.363281 435.628906 441.371094 432.773438 C 452.339844 427.574219 470.691406 413.398438 481.605469 405.960938 C 509.496094 386.90625 536.824219 366.9375 564.175781 347.101562 Z M 556.847656 336.621094 L 552.050781 327.1875 L 423.207031 415.121094 C 426.84375 414.503906 429.21875 422.722656 431.640625 422.074219 Z M 428.460938 439.214844 C 428.730469 435.65625 419.488281 420.726562 416.441406 421.429688 C 415.90625 422.613281 415.148438 423.855469 414.289062 425.121094 C 413.855469 425.738281 413.398438 426.386719 412.941406 427.035156 C 412.265625 428.003906 411.59375 428.972656 410.945312 429.945312 C 408.574219 433.527344 407.066406 437.085938 409.707031 440.050781 C 410.300781 440.695312 411.109375 441.34375 412.160156 441.9375 L 424.878906 439.78125 L 428.4375 439.1875 Z M 428.460938 439.214844 " fill-opacity="1" fill-rule="nonzero"/><path fill="#ffffff" d="M 537.28125 404.773438 L 535.746094 410.972656 C 529.925781 407.980469 521.382812 407.441406 515.859375 404.746094 C 514.617188 404.128906 513.054688 403.9375 513.296875 402.050781 C 514.671875 395.800781 533.402344 403.15625 537.28125 404.773438 Z M 537.28125 404.773438 " fill-opacity="1" fill-rule="nonzero"/><path fill="#ffffff" d="M 520.871094 311.773438 C 523.699219 312.636719 533.347656 314.710938 533.050781 318.078125 C 532.917969 319.589844 531.328125 321.878906 529.601562 321.933594 C 527.472656 321.988281 516.074219 317.78125 512.515625 316.972656 C 493.679688 312.714844 474.492188 309.484375 455.167969 308.324219 C 447.355469 307.867188 439.324219 309.375 431.695312 307.164062 L 431.695312 303.203125 C 433.070312 301.53125 457.296875 301.910156 461.5 302.019531 C 480.070312 302.476562 503.082031 306.25 520.871094 311.773438 Z M 520.871094 311.773438 " fill-opacity="1" fill-rule="nonzero"/><path fill="#ffffff" d="M 519.253906 542.5625 L 525.964844 545.851562 C 523.214844 549.542969 520.25 552.15625 514.375 553.910156 C 499.390625 558.410156 472.632812 547.199219 456.972656 543.183594 C 412.859375 531.917969 368.070312 522.054688 323.414062 513.726562 C 310.5625 523.699219 290.296875 519.0625 278.652344 508.878906 C 271.539062 502.652344 271.378906 501.464844 261.433594 497.828125 C 230.117188 486.347656 193.011719 478.453125 160.320312 471.121094 C 153.125 469.503906 135.394531 468.023438 130.515625 463.253906 C 129.304688 462.066406 128.386719 460.800781 127.6875 459.480469 L 134.640625 459.128906 C 135.3125 458.78125 135.3125 458.429688 134.640625 458.078125 L 135.746094 456.757812 C 136.445312 457.324219 137.386719 457.808594 138.601562 458.292969 C 180.53125 467 222.789062 475.273438 263.183594 489.796875 C 267.253906 491.253906 273.453125 493.570312 276.929688 495.941406 C 281.214844 498.851562 285.015625 504.671875 289.8125 507.152344 C 293.90625 509.28125 304.578125 511.410156 309.078125 511.03125 C 315.679688 510.46875 319.425781 504.941406 325.492188 504.941406 C 326.378906 504.941406 327.296875 505.050781 328.292969 505.320312 C 386.234375 517.125 443.714844 530.382812 500.46875 546.820312 C 507.558594 547.765625 513.539062 547.0625 519.253906 542.5625 Z M 519.253906 542.5625 " fill-opacity="1" fill-rule="nonzero"/><path fill="#ffffff" d="M 513.324219 440.777344 C 515.613281 443.015625 514.484375 447.21875 510.953125 446.382812 L 478.75 434.527344 C 479.773438 433.421875 479.90625 431.535156 481.523438 430.996094 C 485.78125 429.566406 509.929688 437.515625 513.324219 440.777344 Z M 513.324219 440.777344 " fill-opacity="1" fill-rule="nonzero"/><path fill="#ffffff" d="M 500.953125 516.988281 L 507.261719 520.4375 C 504.566406 523.886719 501.25 526.285156 496.804688 526.015625 C 495.78125 525.960938 494.730469 525.773438 493.570312 525.425781 C 487.535156 523.5625 476.027344 515.5625 468.964844 512.328125 C 431.667969 495.320312 396.421875 489.421875 355.621094 488.394531 L 325.113281 492.332031 L 324.117188 484.625 C 324.84375 484.433594 325.542969 484.273438 326.273438 484.109375 C 375.832031 473.871094 433.070312 485.753906 478.074219 507.449219 C 483.195312 509.902344 491.039062 515.804688 495.429688 517.285156 C 496.695312 517.714844 499.632812 518.28125 500.605469 517.609375 Z M 500.953125 516.988281 " fill-opacity="1" fill-rule="nonzero"/><path fill="#ffffff" d="M 494.136719 474.085938 C 495.996094 476.160156 496.238281 479.851562 492.871094 480.121094 C 490.929688 480.285156 479.394531 474.867188 476.136719 473.761719 C 467.375 470.773438 455.222656 468.480469 447.300781 464.898438 C 445.277344 463.980469 443.714844 463.441406 444.171875 460.691406 C 445.117188 459.210938 446.25 459.210938 447.8125 459.050781 C 453.390625 458.457031 473.789062 465.4375 480.070312 467.753906 C 482.601562 468.667969 492.976562 472.765625 494.136719 474.085938 Z M 494.136719 474.085938 " fill-opacity="1" fill-rule="nonzero"/><path fill="#ffffff" d="M 484.949219 347.722656 L 482.765625 352.167969 C 467.96875 349.070312 453.335938 344.867188 438.273438 343.035156 C 431.128906 342.144531 422.074219 342.738281 415.609375 341.550781 C 412.535156 341.011719 412.375 340.445312 412.699219 337.265625 C 413.316406 334.894531 427.304688 335.40625 430.078125 335.515625 C 442.019531 335.972656 471.175781 339.773438 481.578125 344.757812 C 482.925781 345.40625 484.21875 346.402344 484.949219 347.722656 Z M 484.949219 347.722656 " fill-opacity="1" fill-rule="nonzero"/><path fill="#ffffff" d="M 436.386719 374.214844 C 442.449219 376.613281 439.863281 380.546875 434.230469 380.683594 C 426.953125 380.871094 416.6875 378.175781 409.085938 377.449219 C 403.910156 376.960938 387.6875 379.875 391.945312 371.304688 C 403.535156 371.140625 415.285156 370.628906 426.765625 372.328125 C 429.539062 372.730469 433.960938 373.269531 436.386719 374.214844 Z M 436.386719 374.214844 " fill-opacity="1" fill-rule="nonzero"/><path fill="#ffffff" d="M 424.90625 439.808594 L 412.183594 441.964844 L 424.933594 439.835938 Z M 424.90625 439.808594 " fill-opacity="1" fill-rule="nonzero"/><path fill="#ffffff" d="M 393.320312 406.902344 C 395.988281 407.089844 403.453125 407.335938 403.375 410.433594 C 403.210938 416.632812 390.304688 413.261719 386.097656 413.046875 C 383.054688 412.859375 370.332031 414.125 369.792969 411.457031 C 369.578125 410.296875 371.359375 407.335938 372.570312 406.929688 C 375.375 406.011719 389.441406 406.632812 393.320312 406.929688 Z M 393.320312 406.902344 " fill-opacity="1" fill-rule="nonzero"/><path fill="#ffffff" d="M 378.148438 446.652344 L 377.664062 450.800781 C 375.210938 453.417969 370.117188 450.855469 367.179688 450.75 C 360.714844 450.507812 354.03125 451.585938 347.804688 449.699219 C 346.886719 448.351562 349.476562 444.46875 350.417969 444.46875 C 356.726562 444.46875 365.457031 443.6875 371.359375 444.46875 C 373.027344 444.683594 375.992188 446.597656 378.148438 446.652344 Z M 378.148438 446.652344 " fill-opacity="1" fill-rule="nonzero"/><path fill="#ffffff" d="M 370.117188 287.601562 C 373.621094 289.835938 378.066406 291.832031 377.097656 296.789062 C 376.019531 296.953125 375.023438 297.410156 373.863281 297.328125 C 368.5 296.84375 351.308594 285.820312 344.679688 282.640625 C 331.015625 276.121094 317.785156 271.59375 303.203125 267.578125 C 288.652344 263.5625 273.585938 261.027344 259.222656 257.066406 C 256.152344 248.820312 268.789062 252.351562 273.640625 253.132812 C 306.085938 258.308594 342.441406 269.839844 370.117188 287.601562 Z M 370.117188 287.601562 " fill-opacity="1" fill-rule="nonzero"/><path fill="#ffffff" d="M 342.898438 317.917969 C 346.132812 319.964844 359.339844 327.78125 358.261719 331.878906 C 357.316406 333.277344 356.375 333.628906 354.675781 333.46875 C 351.09375 333.171875 337.214844 323.117188 332.792969 320.71875 C 304.175781 305.171875 271.109375 296.492188 238.851562 292.613281 L 240.035156 286.46875 C 252.917969 286.332031 266.175781 289 278.679688 292.074219 C 300.914062 297.542969 323.550781 305.683594 342.898438 317.917969 Z M 251.300781 290.269531 C 251.488281 290.078125 251.460938 289.917969 251.300781 289.757812 C 251.273438 289.675781 251.21875 289.648438 251.140625 289.621094 C 251.085938 289.566406 251.03125 289.515625 250.949219 289.488281 L 250.949219 290.539062 C 250.949219 290.539062 251.085938 290.457031 251.140625 290.402344 C 251.21875 290.375 251.273438 290.320312 251.328125 290.269531 Z M 251.300781 290.269531 " fill-opacity="1" fill-rule="nonzero"/><path fill="#ffffff" d="M 330.691406 355.269531 C 333.710938 357.046875 340.636719 360.28125 339.34375 364.242188 C 338.398438 367.097656 334.464844 365.644531 332.550781 364.917969 C 324.871094 362.007812 315.761719 355.511719 307.894531 351.898438 C 287.84375 342.65625 266.742188 335.648438 245.183594 330.800781 C 236.910156 328.941406 228.285156 328.210938 220.09375 326.054688 L 220.984375 321.367188 C 224.972656 318.726562 250.035156 324.277344 255.640625 325.597656 C 280.40625 331.445312 308.78125 342.386719 330.691406 355.269531 Z M 330.691406 355.269531 " fill-opacity="1" fill-rule="nonzero"/><path fill="#ffffff" d="M 324.117188 484.625 L 325.113281 492.332031 L 322.660156 492.652344 C 322.527344 493.597656 323.199219 493.8125 324.0625 493.8125 L 323.792969 500.066406 C 322.554688 499.984375 321.3125 499.929688 320.074219 499.902344 C 315.601562 499.769531 310.320312 501.277344 306.464844 501.035156 C 296.035156 500.414062 284.476562 492.601562 274.746094 488.691406 C 239.875 474.707031 197.726562 460.046875 160.699219 454.007812 C 153.691406 452.851562 143.828125 454.546875 138.601562 448.378906 C 136.902344 446.355469 138.492188 442.664062 135.152344 443.417969 C 134.9375 449.078125 131.566406 453.578125 135.746094 456.757812 L 134.640625 458.078125 L 134.640625 459.128906 L 127.6875 459.480469 C 124.613281 453.46875 126.445312 446.195312 129.085938 439.96875 C 132.832031 431.238281 132.753906 435.441406 133.128906 425.199219 C 133.210938 423.558594 133.882812 421.105469 135.015625 418.113281 L 140.917969 419.328125 L 140.917969 420.378906 C 141.242188 420.1875 141.429688 420.027344 141.429688 419.867188 L 142.617188 420.027344 C 142.347656 421.859375 142.425781 423.691406 142.480469 425.605469 C 154.851562 425.09375 167.246094 426.601562 179.347656 429.082031 C 214.136719 436.167969 252.890625 451.558594 281.726562 472.308594 C 286.523438 475.730469 294.015625 483.464844 298.570312 485.808594 C 299.621094 486.347656 300.507812 486.589844 301.667969 486.320312 L 308.191406 474.113281 L 314.089844 477.265625 C 313.28125 478.75 308.460938 487.882812 309.050781 488.449219 C 314.226562 487.964844 319.105469 485.917969 324.117188 484.625 Z M 262.457031 475.863281 L 283.882812 484.785156 C 265.152344 469.15625 241.839844 457.484375 218.910156 449.210938 C 199.746094 442.285156 177.8125 436.386719 157.546875 434.121094 C 152.371094 433.527344 147.007812 433.988281 141.941406 432.960938 C 141.429688 437.488281 142.480469 442.71875 147.117188 444.550781 C 186.921875 449.75 224.945312 462.203125 262.457031 475.863281 Z M 262.457031 475.863281 " fill-opacity="1" fill-rule="nonzero"/><path fill="#ffffff" d="M 313.148438 391.675781 C 315.898438 393.429688 321.773438 395.90625 320.476562 399.84375 C 318.457031 406.011719 304.09375 394.371094 301.371094 392.96875 C 271.59375 377.285156 242.378906 368.878906 209.800781 360.929688 C 205.191406 359.796875 200.503906 362.140625 201.148438 354.40625 C 209.070312 353.8125 216.753906 355.132812 224.433594 356.777344 C 253.941406 363.058594 287.84375 375.292969 313.148438 391.675781 Z M 313.148438 391.675781 " fill-opacity="1" fill-rule="nonzero"/><path fill="#ffffff" d="M 296.980469 429.835938 C 299.566406 432.046875 303.285156 436.679688 297.839844 438.054688 C 295.039062 438.757812 276.714844 426.304688 272.402344 424.015625 C 244.699219 409.273438 212.199219 400.675781 181.476562 395.046875 L 180.183594 390.007812 C 191.878906 387.878906 205.324219 391.757812 216.886719 394.695312 C 240.117188 400.625 278.84375 414.261719 296.980469 429.835938 Z M 296.980469 429.835938 " fill-opacity="1" fill-rule="nonzero"/><path fill="#ffffff" d="M 251.273438 289.757812 C 251.460938 289.917969 251.488281 290.078125 251.273438 290.269531 C 251.4375 290.078125 251.4375 289.917969 251.273438 289.757812 Z M 251.273438 289.757812 " fill-opacity="1" fill-rule="nonzero"/><path fill="#ffffff" d="M 251.273438 289.757812 C 251.460938 289.917969 251.460938 290.078125 251.273438 290.269531 C 251.21875 290.320312 251.167969 290.375 251.085938 290.402344 C 251.03125 290.429688 250.976562 290.484375 250.898438 290.511719 L 250.898438 289.515625 C 250.898438 289.515625 251.03125 289.566406 251.085938 289.621094 C 251.167969 289.648438 251.21875 289.675781 251.246094 289.757812 Z M 251.273438 289.757812 " fill-opacity="1" fill-rule="nonzero"/><path fill="#ffffff" d="M 250.921875 289.488281 C 250.921875 289.488281 251.058594 289.566406 251.113281 289.621094 C 251.058594 289.566406 251.003906 289.539062 250.921875 289.515625 Z M 250.921875 289.488281 " fill-opacity="1" fill-rule="nonzero"/><path fill="#ffffff" d="M 251.113281 290.402344 C 251.113281 290.402344 251.003906 290.484375 250.921875 290.539062 C 250.921875 290.539062 251.058594 290.429688 251.113281 290.402344 Z M 251.113281 290.402344 " fill-opacity="1" fill-rule="nonzero"/><path fill="#ffffff" d="M 193.792969 321.582031 L 195.894531 322.847656 C 182.796875 344.730469 170.105469 366.855469 158.003906 389.304688 C 154.527344 395.800781 144.53125 412.453125 142.964844 418.25 C 142.804688 418.839844 142.695312 419.433594 142.617188 420.027344 L 141.429688 419.867188 C 141.429688 419.675781 141.242188 419.488281 140.917969 419.328125 L 135.015625 418.113281 C 139.867188 405.207031 152.722656 382.515625 156.980469 374.644531 C 166.789062 356.429688 177.300781 337.238281 188.347656 318.050781 L 193.28125 320.910156 L 193.28125 321.988281 C 193.523438 321.851562 193.683594 321.71875 193.765625 321.609375 Z M 193.792969 321.582031 " fill-opacity="1" fill-rule="nonzero"/><path fill="#ffffff" d="M 193.765625 321.285156 C 193.765625 321.285156 193.820312 321.476562 193.765625 321.582031 C 193.683594 321.691406 193.523438 321.824219 193.28125 321.960938 L 193.28125 321.90625 C 193.710938 321.691406 193.847656 321.503906 193.738281 321.285156 Z M 193.765625 321.285156 " fill-opacity="1" fill-rule="nonzero"/><path fill="#ffffff" d="M 193.765625 321.285156 C 193.871094 321.503906 193.738281 321.691406 193.308594 321.90625 L 193.308594 320.9375 C 193.308594 320.9375 193.441406 320.988281 193.496094 321.042969 C 193.628906 321.097656 193.710938 321.207031 193.765625 321.285156 Z M 193.765625 321.285156 " fill-opacity="1" fill-rule="nonzero"/><path fill="#ffffff" d="M 193.308594 320.910156 C 193.308594 320.910156 193.441406 320.988281 193.496094 321.042969 C 193.441406 320.988281 193.386719 320.964844 193.308594 320.9375 Z M 193.308594 320.910156 " fill-opacity="1" fill-rule="nonzero"/></svg>