<svg xmlns="http://www.w3.org/2000/svg" xmlns:xlink="http://www.w3.org/1999/xlink" width="1024" zoomAndPan="magnify" viewBox="0 0 768 767.999994" height="1024" preserveAspectRatio="xMidYMid meet" version="1.0"><defs><clipPath id="466ebae839"><path d="M 72.644531 107.285156 L 695.144531 107.285156 L 695.144531 660.785156 L 72.644531 660.785156 Z M 72.644531 107.285156 " clip-rule="nonzero"/></clipPath></defs><g clip-path="url(#466ebae839)"><path fill="#ffffff" d="M 377.757812 274.839844 L 377.757812 122.171875 C 381.472656 116.867188 387.539062 113.773438 393.445312 111.480469 L 393.488281 111.464844 C 438.585938 93.980469 458.558594 138.640625 497.105469 115.855469 C 488.652344 145.636719 488.652344 168.925781 497.105469 185.726562 C 457.6875 209.027344 437.691406 161.808594 390.390625 182.632812 L 390.390625 274.839844 L 495.703125 274.839844 L 530.957031 320.574219 L 237.1875 320.574219 L 272.445312 274.839844 Z M 264.011719 660.695312 L 264.011719 434.089844 L 111.605469 434.089844 L 111.605469 660.695312 Z M 204.308594 465.023438 L 238.8125 465.023438 L 238.8125 531.398438 L 204.308594 531.398438 Z M 204.308594 563.390625 L 238.8125 563.390625 L 238.8125 629.765625 L 204.308594 629.765625 Z M 171.3125 563.390625 L 171.3125 629.765625 L 136.808594 629.765625 L 136.808594 563.390625 Z M 171.3125 465.023438 L 171.3125 531.398438 L 136.808594 531.398438 L 136.808594 465.023438 Z M 656.539062 434.089844 L 504.132812 434.089844 L 504.132812 660.695312 L 656.539062 660.695312 Z M 529.335938 531.398438 L 529.335938 465.023438 L 563.839844 465.023438 L 563.839844 531.398438 Z M 596.832031 629.765625 L 596.832031 563.390625 L 631.339844 563.390625 L 631.339844 629.765625 Z M 529.335938 563.390625 L 563.839844 563.390625 L 563.839844 629.765625 L 529.335938 629.765625 Z M 596.832031 531.398438 L 596.832031 465.023438 L 631.339844 465.023438 L 631.339844 531.398438 Z M 504.132812 375.722656 L 504.132812 421.457031 L 695.453125 421.457031 L 660.199219 375.722656 Z M 276.644531 369.40625 L 276.644531 660.695312 L 491.503906 660.695312 L 491.503906 333.207031 L 276.644531 333.207031 Z M 299.324219 366.652344 L 333.828125 366.652344 L 333.828125 433.027344 L 299.324219 433.027344 Z M 366.820312 433.027344 L 366.820312 366.652344 L 401.324219 366.652344 L 401.324219 433.027344 Z M 434.320312 433.027344 L 434.320312 366.652344 L 468.824219 366.652344 L 468.824219 433.027344 Z M 366.820312 531.398438 L 366.820312 465.023438 L 401.324219 465.023438 L 401.324219 531.398438 Z M 434.320312 629.765625 L 434.320312 563.390625 L 468.824219 563.390625 L 468.824219 629.765625 Z M 434.320312 531.398438 L 434.320312 465.023438 L 468.824219 465.023438 L 468.824219 531.398438 Z M 299.324219 465.023438 L 333.828125 465.023438 L 333.828125 531.398438 L 299.324219 531.398438 Z M 366.820312 629.765625 L 366.820312 563.390625 L 401.324219 563.390625 L 401.324219 629.765625 Z M 299.324219 563.390625 L 333.828125 563.390625 L 333.828125 629.765625 L 299.324219 629.765625 Z M 264.011719 421.457031 L 264.011719 375.722656 L 107.949219 375.722656 L 72.695312 421.457031 Z M 264.011719 421.457031 " fill-opacity="1" fill-rule="evenodd"/></g></svg>