<svg xmlns="http://www.w3.org/2000/svg" xmlns:xlink="http://www.w3.org/1999/xlink" width="1024" zoomAndPan="magnify" viewBox="0 0 768 767.999994" height="1024" preserveAspectRatio="xMidYMid meet" version="1.0"><defs><clipPath id="9164306079"><path d="M 107.285156 107.285156 L 660.785156 107.285156 L 660.785156 660.785156 L 107.285156 660.785156 Z M 107.285156 107.285156 " clip-rule="nonzero"/></clipPath></defs><path fill="#ffffff" d="M 384 616.101562 C 256.03125 616.101562 151.894531 511.964844 151.894531 384 C 151.894531 256.03125 256.03125 151.894531 384 151.894531 C 511.964844 151.894531 616.101562 256.03125 616.101562 384 C 616.101562 511.964844 511.964844 616.101562 384 616.101562 Z M 384 169.976562 C 266.011719 169.976562 169.976562 266.011719 169.976562 384 C 169.976562 501.988281 266.011719 598.019531 384 598.019531 C 501.988281 598.019531 598.019531 501.988281 598.019531 384 C 598.019531 266.011719 501.988281 169.976562 384 169.976562 Z M 384 169.976562 " fill-opacity="1" fill-rule="nonzero"/><path fill="#ffffff" d="M 469.464844 524.996094 C 466.53125 524.996094 463.597656 523.589844 461.835938 520.886719 L 376.367188 388.929688 C 375.429688 387.519531 374.957031 385.757812 374.957031 384 L 374.957031 237.128906 C 374.957031 232.199219 378.949219 228.089844 384 228.089844 C 388.929688 228.089844 393.039062 232.082031 393.039062 237.128906 L 393.039062 381.296875 L 477.097656 511.027344 C 479.796875 515.253906 478.625 520.769531 474.398438 523.472656 C 472.871094 524.527344 471.226562 524.996094 469.464844 524.996094 Z M 469.464844 524.996094 " fill-opacity="1" fill-rule="nonzero"/><path fill="#ffffff" d="M 384 201.558594 C 379.066406 201.558594 374.957031 197.566406 374.957031 192.515625 L 374.957031 160.9375 C 374.957031 156.003906 378.949219 151.894531 384 151.894531 C 388.929688 151.894531 393.039062 155.886719 393.039062 160.9375 L 393.039062 192.515625 C 393.039062 197.566406 388.929688 201.558594 384 201.558594 Z M 384 201.558594 " fill-opacity="1" fill-rule="nonzero"/><path fill="#ffffff" d="M 519.363281 257.675781 C 517.015625 257.675781 514.785156 256.734375 513.023438 255.089844 C 509.5 251.570312 509.5 245.816406 513.023438 242.292969 L 535.328125 219.988281 C 538.851562 216.464844 544.601562 216.464844 548.125 219.988281 C 551.648438 223.511719 551.648438 229.261719 548.125 232.785156 L 525.820312 255.089844 C 523.941406 256.734375 521.710938 257.675781 519.363281 257.675781 Z M 519.363281 257.675781 " fill-opacity="1" fill-rule="nonzero"/><path fill="#ffffff" d="M 607.0625 393.039062 L 575.480469 393.039062 C 570.550781 393.039062 566.441406 389.046875 566.441406 384 C 566.441406 379.066406 570.429688 374.957031 575.480469 374.957031 L 607.0625 374.957031 C 611.992188 374.957031 616.101562 378.949219 616.101562 384 C 616.101562 388.929688 611.992188 393.039062 607.0625 393.039062 Z M 607.0625 393.039062 " fill-opacity="1" fill-rule="nonzero"/><path fill="#ffffff" d="M 541.785156 550.707031 C 539.4375 550.707031 537.207031 549.886719 535.445312 548.125 L 513.140625 525.820312 C 509.617188 522.296875 509.617188 516.542969 513.140625 513.023438 C 516.660156 509.5 522.414062 509.5 525.9375 513.023438 L 548.242188 535.328125 C 551.765625 538.851562 551.765625 544.601562 548.242188 548.125 C 546.363281 549.886719 544.015625 550.707031 541.785156 550.707031 Z M 541.785156 550.707031 " fill-opacity="1" fill-rule="nonzero"/><path fill="#ffffff" d="M 384 616.101562 C 379.066406 616.101562 374.957031 612.109375 374.957031 607.0625 L 374.957031 575.480469 C 374.957031 570.550781 378.949219 566.441406 384 566.441406 C 388.929688 566.441406 393.039062 570.429688 393.039062 575.480469 L 393.039062 607.0625 C 393.039062 611.992188 388.929688 616.101562 384 616.101562 Z M 384 616.101562 " fill-opacity="1" fill-rule="nonzero"/><path fill="#ffffff" d="M 226.210938 550.707031 C 223.863281 550.707031 221.632812 549.886719 219.871094 548.125 C 216.347656 544.601562 216.347656 538.851562 219.871094 535.328125 L 242.175781 513.023438 C 245.699219 509.5 251.453125 509.5 254.972656 513.023438 C 258.496094 516.542969 258.496094 522.296875 254.972656 525.820312 L 232.667969 548.125 C 230.90625 549.886719 228.558594 550.707031 226.210938 550.707031 Z M 226.210938 550.707031 " fill-opacity="1" fill-rule="nonzero"/><path fill="#ffffff" d="M 192.515625 393.039062 L 160.9375 393.039062 C 156.003906 393.039062 151.894531 389.046875 151.894531 384 C 151.894531 379.066406 155.886719 374.957031 160.9375 374.957031 L 192.515625 374.957031 C 197.449219 374.957031 201.554688 378.949219 201.554688 384 C 201.554688 388.929688 197.566406 393.039062 192.515625 393.039062 Z M 192.515625 393.039062 " fill-opacity="1" fill-rule="nonzero"/><path fill="#ffffff" d="M 248.632812 257.675781 C 246.285156 257.675781 244.054688 256.734375 242.292969 255.089844 L 219.988281 232.785156 C 216.464844 229.261719 216.464844 223.511719 219.988281 219.988281 C 223.511719 216.464844 229.261719 216.464844 232.785156 219.988281 L 255.089844 242.292969 C 258.613281 245.816406 258.613281 251.570312 255.089844 255.089844 C 253.214844 256.734375 250.863281 257.675781 248.632812 257.675781 Z M 248.632812 257.675781 " fill-opacity="1" fill-rule="nonzero"/><g clip-path="url(#9164306079)"><path fill="#ffffff" d="M 384 660.714844 C 310.035156 660.714844 240.652344 631.949219 188.289062 579.707031 C 136.046875 527.34375 107.285156 457.960938 107.285156 384 C 107.285156 310.035156 136.046875 240.652344 188.289062 188.289062 C 240.535156 135.929688 310.035156 107.285156 384 107.285156 C 457.960938 107.285156 527.34375 136.046875 579.707031 188.289062 C 631.949219 240.535156 660.714844 310.035156 660.714844 384 C 660.714844 457.960938 631.949219 527.34375 579.707031 579.707031 C 527.34375 631.949219 457.960938 660.714844 384 660.714844 Z M 384 125.363281 C 241.355469 125.363281 125.363281 241.355469 125.363281 384 C 125.363281 526.640625 241.355469 642.632812 384 642.632812 C 526.640625 642.632812 642.632812 526.640625 642.632812 384 C 642.632812 241.355469 526.640625 125.363281 384 125.363281 Z M 384 125.363281 " fill-opacity="1" fill-rule="nonzero"/></g></svg>